<?xml version="1.0" encoding="UTF-8" standalone="no"?>
<!-- Created with Inkscape (http://www.inkscape.org/) -->

<svg
   xmlns:dc="http://purl.org/dc/elements/1.1/"
   xmlns:cc="http://creativecommons.org/ns#"
   xmlns:rdf="http://www.w3.org/1999/02/22-rdf-syntax-ns#"
   xmlns:svg="http://www.w3.org/2000/svg"
   xmlns="http://www.w3.org/2000/svg"
   xmlns:sodipodi="http://sodipodi.sourceforge.net/DTD/sodipodi-0.dtd"
   xmlns:inkscape="http://www.inkscape.org/namespaces/inkscape"
   width="100mm"
   height="21.4mm"
   viewBox="0 0 354.33071 75.82677"
   id="svg4787"
   version="1.1"
   inkscape:version="0.91 r13725"
   sodipodi:docname="header.svg">
  <defs
     id="defs4789" />
  <sodipodi:namedview
     id="base"
     pagecolor="#ffffff"
     bordercolor="#666666"
     borderopacity="1.0"
     inkscape:pageopacity="0.0"
     inkscape:pageshadow="2"
     inkscape:zoom="1.4"
     inkscape:cx="-8.0233788"
     inkscape:cy="21.195783"
     inkscape:document-units="px"
     inkscape:current-layer="layer1"
     showgrid="true"
     inkscape:snap-bbox="true"
     inkscape:bbox-nodes="true"
     inkscape:window-width="1855"
     inkscape:window-height="1056"
     inkscape:window-x="65"
     inkscape:window-y="24"
     inkscape:window-maximized="1">
    <inkscape:grid
       type="xygrid"
       id="grid5380"
       units="mm"
       spacingx="0.7086614"
       spacingy="0.70866145" />
  </sodipodi:namedview>
  <metadata
     id="metadata4792">
    <rdf:RDF>
      <cc:Work
         rdf:about="">
        <dc:format>image/svg+xml</dc:format>
        <dc:type
           rdf:resource="http://purl.org/dc/dcmitype/StillImage" />
        <dc:title />
      </cc:Work>
    </rdf:RDF>
  </metadata>
  <g
     inkscape:label="Calque 1"
     inkscape:groupmode="layer"
     id="layer1"
     transform="translate(0,-976.53543)">
    <path
       inkscape:connector-curvature="0"
       style="fill:#000000;fill-opacity:1;stroke:none"
       d="M 17.853253,976.62253 C 7.9626942,976.62253 0,984.58464 0,994.4752 l 0,40.0343 c 0,9.8906 7.9626942,17.8527 17.853253,17.8527 l 40.033682,0 c 9.890559,0 17.853253,-7.9621 17.853253,-17.8527 l 0,-40.0343 c 0,-9.89056 -7.962694,-17.85267 -17.853253,-17.85267 l -40.033682,0 z m 22.850125,8.08651 c 2.121216,-0.0584 1.437595,1.74459 5.481664,4.13429 4.31369,2.549 0.873156,4.2556 5.066878,3.27911 4.193693,-0.97648 4.468499,0.69312 6.006834,-0.44383 1.538364,-1.13689 7.061193,10.01789 -0.838692,12.91669 -7.899885,2.8988 -8.022066,0.3972 -8.132594,1.6945 -0.06878,0.8073 3.474094,-0.018 5.441287,4.0205 0.909746,1.8673 5.869445,2.6977 8.48763,10.3442 2.206516,6.4443 3.414635,17.2815 -9.203995,19.0914 -1.402258,0.2012 -2.879823,0.4046 -4.677116,0.5309 -0.447706,0.031 2.241154,0.5321 3.021901,1.7502 0.857075,1.3371 0.784127,2.5094 -1.965852,2.4922 -2.688453,-0.017 -11.944216,0.021 -13.076009,-0.1331 -1.908288,-0.2604 -1.828581,-0.9516 -1.535131,-2.0416 0.275301,-1.0226 1.973893,-2.004 0.350492,-2.2594 -2.774102,-0.4366 -5.49358,-1.5367 -8.078554,-2.8456 -8.923422,-4.5181 -15.639279,-17.2219 -15.135726,-28.465 0.503524,-11.24299 11.398508,-21.69135 13.215407,-20.10584 1.816841,1.58552 -8.570104,14.18124 -3.840696,22.13944 4.729408,7.9582 9.724795,6.2973 11.747398,-0.7909 2.022632,-7.0882 -3.543808,-7.0796 -4.066035,-9.3753 -0.456504,-2.00662 1.581597,-2.42237 1.735445,-4.21276 0.08775,-1.02138 -1.215986,-4.08943 -0.172988,-6.03075 1.163285,-2.16521 4.798889,-0.88685 5.531189,-1.44581 1.173773,-0.89591 2.169605,-3.95967 4.173534,-4.20712 0.168589,-0.0207 0.32232,-0.0325 0.463729,-0.0364 z"
       id="rect4153-36-0-3"
       inkscape:export-xdpi="74"
       inkscape:export-ydpi="74" />
    <g
       transform="matrix(0.29132377,0,0,0.29132377,5.8264753e-5,976.62239)"
       style="font-style:normal;font-weight:normal;font-size:196.00971985px;line-height:125%;font-family:sans-serif;letter-spacing:0px;word-spacing:0px;fill:#000000;fill-opacity:1;stroke:none;stroke-width:1px;stroke-linecap:butt;stroke-linejoin:miter;stroke-opacity:1"
       id="flowRoot4157-2-7">
      <path
         d="m 315.01865,36.869504 q 0,-4.116204 2.74413,-6.86034 2.94015,-2.940146 7.05635,-2.940146 4.11621,0 6.86034,2.940146 2.94015,2.744136 2.94015,6.86034 0,-4.116204 2.74413,-6.86034 2.94015,-2.940146 7.05635,-2.940146 4.11621,0 6.86034,2.940146 2.54813,2.548126 2.94015,6.076301 0.19601,-3.528175 2.74414,-6.076301 2.94014,-2.940146 7.05635,-2.940146 4.1162,0 6.86034,2.940146 2.94014,2.744136 2.94014,6.86034 0,4.116204 -2.94014,7.05635 -2.74414,2.744136 -6.86034,2.744136 -3.9202,0 -6.66434,-2.548127 -2.74413,-2.352116 -3.13615,-6.272311 -0.58803,3.920195 -3.13616,6.272311 -2.74413,2.548127 -6.66433,2.548127 -3.92019,0 -6.66433,-2.548127 -2.74413,-2.352116 -3.13615,-6.272311 -0.58803,3.920195 -3.13616,6.272311 -2.74413,2.548127 -6.66433,2.548127 -4.1162,0 -7.05635,-2.744136 -2.74413,-2.940146 -2.74413,-7.05635 z m 0,58.802916 q 0,-4.116204 2.74413,-6.86034 2.94015,-2.940146 7.05635,-2.940146 4.11621,0 6.86034,2.940146 2.54813,2.548126 2.94015,6.076301 0.19601,-3.528175 2.74413,-6.076301 2.94015,-2.940146 7.05635,-2.940146 4.11621,0 6.86034,2.940146 2.54813,2.548126 2.94015,6.076301 0.19601,-3.528175 2.74414,-6.076301 2.94014,-2.940146 7.05635,-2.940146 4.1162,0 6.86034,2.940146 2.94014,2.744136 2.94014,6.86034 0,4.116204 -2.94014,7.05635 -2.74414,2.74414 -6.86034,2.74414 -3.9202,0 -6.66434,-2.54813 -2.74413,-2.35212 -3.13615,-6.272312 -0.58803,3.920192 -3.13616,6.272312 -2.74413,2.54813 -6.66433,2.54813 -3.92019,0 -6.66433,-2.54813 -2.74413,-2.35212 -3.13615,-6.272312 -0.58803,3.920192 -3.13616,6.272312 -2.74413,2.54813 -6.66433,2.54813 -4.1162,0 -7.05635,-2.74414 -2.74413,-2.940146 -2.74413,-7.05635 z m 0,58.80292 q 0,-4.11621 2.74413,-6.86034 2.94015,-2.94015 7.05635,-2.94015 4.11621,0 6.86034,2.94015 2.54813,2.54812 2.94015,6.0763 0.19601,-3.52818 2.74413,-6.0763 2.94015,-2.94015 7.05635,-2.94015 4.11621,0 6.86034,2.94015 2.94015,2.74413 2.94015,6.86034 0,-4.11621 2.74414,-6.86034 2.94014,-2.94015 7.05635,-2.94015 4.1162,0 6.86034,2.94015 2.94014,2.74413 2.94014,6.86034 0,4.1162 -2.94014,7.05635 -2.74414,2.74413 -6.86034,2.74413 -3.9202,0 -6.66434,-2.54812 -2.74413,-2.35212 -3.13615,-6.27232 -0.58803,3.9202 -3.13616,6.27232 -2.74413,2.54812 -6.66433,2.54812 -3.92019,0 -6.66433,-2.54812 -2.74413,-2.35212 -3.13615,-6.27232 -0.58803,3.9202 -3.13616,6.27232 -2.74413,2.54812 -6.66433,2.54812 -4.1162,0 -7.05635,-2.74413 -2.74413,-2.94015 -2.74413,-7.05635 z m 58.80291,-19.60098 q 0,-3.92019 2.54813,-6.66433 2.35211,-2.54812 6.27231,-3.13615 -3.9202,-0.39202 -6.27231,-3.13616 -2.54813,-2.74413 -2.54813,-6.66433 0,-4.1162 2.74414,-6.86034 2.94014,-2.94014 7.05635,-2.94014 4.1162,0 6.86034,2.94014 2.94014,2.74414 2.94014,6.86034 0,3.9202 -2.54812,6.66433 -2.54813,2.74414 -6.27231,3.13616 3.72418,0.58803 6.27231,3.13615 2.54812,2.74414 2.54812,6.66433 0,4.11621 -2.94014,7.05635 -2.74414,2.74414 -6.86034,2.74414 -4.11621,0 -7.05635,-2.74414 -2.74414,-2.94014 -2.74414,-7.05635 z M 295.41767,56.470476 q 0,-4.116204 2.74414,-6.86034 2.94015,-2.940146 7.05635,-2.940146 4.1162,0 6.86034,2.940146 2.94015,2.744136 2.94015,6.86034 0,3.920194 -2.54813,6.66433 -2.54813,2.744136 -6.27231,3.136156 3.72418,0.588029 6.27231,3.136155 2.54813,2.744136 2.54813,6.664331 0,4.116204 -2.94015,7.05635 -2.74414,2.744136 -6.86034,2.744136 -4.1162,0 -7.05635,-2.744136 -2.74414,-2.940146 -2.74414,-7.05635 0,-3.920195 2.54813,-6.664331 2.35212,-2.548126 6.27231,-3.136155 -3.92019,-0.39202 -6.27231,-3.136156 -2.54813,-2.744136 -2.54813,-6.66433 z m 78.40389,0 q 0,-4.116204 2.74414,-6.86034 2.94014,-2.940146 7.05635,-2.940146 4.1162,0 6.86034,2.940146 2.94014,2.744136 2.94014,6.86034 0,4.116204 -2.94014,7.05635 -2.74414,2.744136 -6.86034,2.744136 -4.11621,0 -7.05635,-2.744136 -2.74414,-2.940146 -2.74414,-7.05635 z m -78.40389,78.403884 q 0,-4.1162 2.74414,-6.86034 2.94015,-2.94014 7.05635,-2.94014 4.1162,0 6.86034,2.94014 2.94015,2.74414 2.94015,6.86034 0,4.11621 -2.94015,7.05635 -2.74414,2.74414 -6.86034,2.74414 -4.1162,0 -7.05635,-2.74414 -2.74414,-2.94014 -2.74414,-7.05635 z"
         style="font-style:normal;font-variant:normal;font-weight:normal;font-stretch:normal;font-family:'5by7';-inkscape-font-specification:'5by7'"
         id="path4183" />
      <path
         d="m 412.94694,115.27339 q 0,-3.92019 2.54813,-6.66433 2.35211,-2.54813 6.27231,-3.13615 -3.9202,-0.39202 -6.27231,-3.13616 -2.54813,-2.744136 -2.54813,-6.66433 0,-3.920195 2.54813,-6.664331 2.35211,-2.548126 6.27231,-3.136155 -3.9202,-0.39202 -6.27231,-3.136156 -2.54813,-2.744136 -2.54813,-6.66433 0,-3.920195 2.54813,-6.664331 2.35211,-2.548126 6.27231,-3.136155 -3.9202,-0.39202 -6.27231,-3.136156 -2.54813,-2.744136 -2.54813,-6.66433 0,-4.116204 2.74414,-6.86034 2.94014,-2.940146 7.05635,-2.940146 4.1162,0 6.86034,2.940146 2.94014,2.744136 2.94014,6.86034 0,3.920194 -2.54812,6.66433 -2.54813,2.744136 -6.27232,3.136156 3.72419,0.588029 6.27232,3.136155 2.54812,2.744136 2.54812,6.664331 0,3.920194 -2.54812,6.66433 -2.54813,2.744136 -6.27232,3.136156 3.72419,0.588029 6.27232,3.136155 2.54812,2.744136 2.54812,6.664331 0,3.920194 -2.54812,6.66433 -2.54813,2.74414 -6.27232,3.13616 3.72419,0.58802 6.27232,3.13615 2.54812,2.74414 2.54812,6.66433 0,3.9202 -2.54812,6.66433 -2.54813,2.74414 -6.27232,3.13616 3.72419,0.58803 6.27232,3.13615 2.54812,2.74414 2.54812,6.66433 0,4.11621 -2.94014,7.05635 -2.74414,2.74414 -6.86034,2.74414 -4.11621,0 -7.05635,-2.74414 -2.74414,-2.94014 -2.74414,-7.05635 0,-3.92019 2.54813,-6.66433 2.35211,-2.54812 6.27231,-3.13615 -3.9202,-0.39202 -6.27231,-3.13616 -2.54813,-2.74413 -2.54813,-6.66433 z m 78.40389,0 q 0,-3.92019 2.54812,-6.66433 2.35212,-2.54813 6.27232,-3.13615 -3.9202,-0.39202 -6.27232,-3.13616 -2.54812,-2.744136 -2.54812,-6.66433 0,-3.920195 2.54812,-6.664331 2.35212,-2.548126 6.27232,-3.136155 -3.9202,-0.39202 -6.27232,-3.136156 -2.54812,-2.744136 -2.54812,-6.66433 0,-3.920195 2.54812,-6.664331 2.35212,-2.548126 6.27232,-3.136155 -3.9202,-0.39202 -6.27232,-3.136156 -2.54812,-2.744136 -2.54812,-6.66433 0,-4.116204 2.74413,-6.86034 2.94015,-2.940146 7.05635,-2.940146 4.11621,0 6.86034,2.940146 2.94015,2.744136 2.94015,6.86034 0,3.920194 -2.54813,6.66433 -2.54812,2.744136 -6.27231,3.136156 3.72419,0.588029 6.27231,3.136155 2.54813,2.744136 2.54813,6.664331 0,3.920194 -2.54813,6.66433 -2.54812,2.744136 -6.27231,3.136156 3.72419,0.588029 6.27231,3.136155 2.54813,2.744136 2.54813,6.664331 0,3.920194 -2.54813,6.66433 -2.54812,2.74414 -6.27231,3.13616 3.72419,0.58802 6.27231,3.13615 2.54813,2.74414 2.54813,6.66433 0,3.9202 -2.54813,6.66433 -2.54812,2.74414 -6.27231,3.13616 3.72419,0.58803 6.27231,3.13615 2.54813,2.74414 2.54813,6.66433 0,4.11621 -2.94015,7.05635 -2.74413,2.74414 -6.86034,2.74414 -4.1162,0 -7.05635,-2.74414 -2.74413,-2.94014 -2.74413,-7.05635 0,-3.92019 2.54812,-6.66433 2.35212,-2.54812 6.27232,-3.13615 -3.9202,-0.39202 -6.27232,-3.13616 -2.54812,-2.74413 -2.54812,-6.66433 z M 432.54791,36.869504 q 0,-4.116204 2.74414,-6.86034 2.94014,-2.940146 7.05635,-2.940146 3.92019,0 6.66433,2.548126 2.54812,2.548127 3.13615,6.272311 0.39202,-3.724184 3.13616,-6.272311 2.74414,-2.548126 6.66433,-2.548126 4.1162,0 6.86034,2.940146 2.94015,2.744136 2.94015,6.86034 0,-4.116204 2.74413,-6.86034 2.94015,-2.940146 7.05635,-2.940146 4.11621,0 6.86034,2.940146 2.94015,2.744136 2.94015,6.86034 0,4.116204 -2.94015,7.05635 -2.74413,2.744136 -6.86034,2.744136 -3.92019,0 -6.66433,-2.548127 -2.74413,-2.352116 -3.13615,-6.272311 -0.58803,3.920195 -3.13616,6.272311 -2.74414,2.548127 -6.66433,2.548127 -3.92019,0 -6.66433,-2.548127 -2.74414,-2.352116 -3.13616,-6.272311 -0.58803,3.920195 -3.13615,6.272311 -2.74414,2.548127 -6.66433,2.548127 -4.11621,0 -7.05635,-2.744136 -2.74414,-2.940146 -2.74414,-7.05635 z m 0,117.605836 q 0,-4.11621 2.74414,-6.86034 2.94014,-2.94015 7.05635,-2.94015 3.92019,0 6.66433,2.54813 2.74413,2.54812 3.13615,6.46832 0.39202,-3.9202 3.13616,-6.46832 2.74414,-2.54813 6.66433,-2.54813 3.92019,0 6.66433,2.54813 2.54813,2.54812 3.13616,6.27231 0.39202,-3.72419 3.13615,-6.27231 2.74414,-2.54813 6.66433,-2.54813 4.11621,0 6.86034,2.94015 2.94015,2.74413 2.94015,6.86034 0,4.1162 -2.94015,7.05635 -2.74413,2.74413 -6.86034,2.74413 -3.92019,0 -6.66433,-2.54812 -2.74413,-2.35212 -3.13615,-6.27232 -0.58803,3.9202 -3.13616,6.27232 -2.74414,2.54812 -6.66433,2.54812 -3.92019,0 -6.66433,-2.54812 -2.74414,-2.35212 -3.13616,-6.27232 -0.58803,3.9202 -3.13615,6.27232 -2.74414,2.54812 -6.66433,2.54812 -4.11621,0 -7.05635,-2.74413 -2.74414,-2.94015 -2.74414,-7.05635 z"
         style="font-style:normal;font-variant:normal;font-weight:normal;font-stretch:normal;font-family:'5by7';-inkscape-font-specification:'5by7'"
         id="path4185" />
      <path
         d="m 530.47621,36.869504 q 0,-4.116204 2.74413,-6.86034 2.94015,-2.940146 7.05635,-2.940146 4.11621,0 6.86034,2.940146 2.94015,2.744136 2.94015,6.86034 0,-4.116204 2.74413,-6.86034 2.94015,-2.940146 7.05635,-2.940146 3.9202,0 6.66433,2.548126 2.74414,2.548127 3.13616,6.468321 0.39202,-3.920194 3.13616,-6.468321 2.74413,-2.548126 6.66433,-2.548126 3.92019,0 6.66433,2.548126 2.74413,2.548127 3.13615,6.468321 0.39202,-3.920194 3.13616,-6.468321 2.74413,-2.548126 6.66433,-2.548126 3.92019,0 6.66433,2.548126 2.54812,2.548127 3.13615,6.272311 0.39202,-3.724184 3.13616,-6.272311 2.74414,-2.548126 6.66433,-2.548126 4.1162,0 6.86034,2.940146 2.94015,2.744136 2.94015,6.86034 0,4.116204 -2.94015,7.05635 -2.74414,2.744136 -6.86034,2.744136 -3.92019,0 -6.66433,-2.548127 -2.74414,-2.352116 -3.13616,-6.272311 -0.58803,3.920195 -3.13615,6.272311 -2.74414,2.548127 -6.66433,2.548127 -3.9202,0 -6.66433,-2.548127 -2.74414,-2.352116 -3.13616,-6.272311 -0.58803,3.920195 -3.13615,6.272311 -2.74414,2.548127 -6.66433,2.548127 -3.9202,0 -6.66433,-2.548127 -2.74414,-2.352116 -3.13616,-6.272311 -0.58803,3.920195 -3.13616,6.272311 -2.74413,2.548127 -6.66433,2.548127 -3.92019,0 -6.66433,-2.548127 -2.74413,-2.352116 -3.13615,-6.272311 -0.58803,3.724185 -3.13616,6.076302 -2.35211,2.352116 -5.68428,2.744136 3.72419,0.588029 6.27231,3.136155 2.54813,2.744136 2.54813,6.664331 0,3.920194 -2.54813,6.66433 -2.54812,2.744136 -6.27231,3.136156 3.72419,0.588029 6.27231,3.136155 2.54813,2.744136 2.54813,6.664331 0,3.920194 -2.54813,6.66433 -2.54812,2.744136 -6.27231,3.136156 3.72419,0.588029 6.27231,3.136155 2.54813,2.744136 2.54813,6.664331 0,-4.116204 2.74413,-6.86034 2.94015,-2.940146 7.05635,-2.940146 3.9202,0 6.66433,2.548126 2.54813,2.548126 3.13616,6.272311 0.39202,-3.724185 3.13616,-6.272311 2.74413,-2.548126 6.66433,-2.548126 3.92019,0 6.66433,2.548126 2.54812,2.548126 3.13615,6.272311 0.39202,-3.724185 3.13616,-6.272311 2.74413,-2.548126 6.66433,-2.548126 4.1162,0 6.86034,2.940146 2.94014,2.744136 2.94014,6.86034 0,4.116204 -2.94014,7.05635 -2.74414,2.74414 -6.86034,2.74414 -3.9202,0 -6.66433,-2.54813 -2.74414,-2.35212 -3.13616,-6.272312 -0.58803,3.920192 -3.13615,6.272312 -2.74414,2.54813 -6.66433,2.54813 -3.9202,0 -6.66433,-2.54813 -2.74414,-2.35212 -3.13616,-6.272312 -0.58803,3.920192 -3.13616,6.272312 -2.74413,2.54813 -6.66433,2.54813 -3.92019,0 -6.66433,-2.54813 -2.74413,-2.35212 -3.13615,-6.272312 -0.58803,3.724182 -3.13616,6.076302 -2.35211,2.35212 -5.68428,2.74414 3.72419,0.58802 6.27231,3.13615 2.54813,2.74414 2.54813,6.66433 0,3.9202 -2.54813,6.66433 -2.54812,2.74414 -6.27231,3.13616 3.72419,0.58803 6.27231,3.13615 2.54813,2.74414 2.54813,6.66433 0,3.9202 -2.54813,6.66433 -2.54812,2.74414 -6.27231,3.13616 3.72419,0.58803 6.27231,3.13616 2.54813,2.74413 2.54813,6.66433 0,4.1162 -2.94015,7.05635 -2.74413,2.74413 -6.86034,2.74413 -4.1162,0 -7.05635,-2.74413 -2.74413,-2.94015 -2.74413,-7.05635 0,-3.9202 2.54812,-6.66433 2.35212,-2.54813 6.27231,-3.13616 -3.92019,-0.39202 -6.27231,-3.13616 -2.54812,-2.74413 -2.54812,-6.66433 0,-3.92019 2.54812,-6.66433 2.35212,-2.54812 6.27231,-3.13615 -3.92019,-0.39202 -6.27231,-3.13616 -2.54812,-2.74413 -2.54812,-6.66433 0,-3.92019 2.54812,-6.66433 2.35212,-2.54813 6.27231,-3.13615 -3.92019,-0.39202 -6.27231,-3.13616 -2.54812,-2.744136 -2.54812,-6.66433 0,-3.920195 2.54812,-6.664331 2.35212,-2.548126 6.27231,-3.136155 -3.92019,-0.39202 -6.27231,-3.136156 -2.54812,-2.744136 -2.54812,-6.66433 0,-3.920195 2.54812,-6.664331 2.35212,-2.548126 6.27231,-3.136155 -3.92019,-0.39202 -6.27231,-3.136156 -2.54812,-2.744136 -2.54812,-6.66433 0,-3.920195 2.54812,-6.664331 2.35212,-2.548126 6.27231,-3.136155 -3.92019,-0.39202 -6.27231,-3.136156 -2.54812,-2.744136 -2.54812,-6.66433 z"
         style="font-style:normal;font-variant:normal;font-weight:normal;font-stretch:normal;font-family:'5by7';-inkscape-font-specification:'5by7'"
         id="path4187" />
      <path
         d="m 687.20742,56.470476 q 0,-3.920195 2.54812,-6.664331 2.35212,-2.548126 6.27231,-3.136155 -3.72418,-0.39202 -6.0763,-2.744136 -2.35211,-2.352117 -2.74413,-6.076302 -0.58803,3.920195 -3.13616,6.272311 -2.74414,2.548127 -6.66433,2.548127 -3.92019,0 -6.66433,-2.548127 -2.74414,-2.352116 -3.13616,-6.272311 -0.58802,3.920195 -3.13615,6.272311 -2.74414,2.548127 -6.66433,2.548127 -4.11621,0 -7.05635,-2.744136 -2.74414,-2.940146 -2.74414,-7.05635 0,-4.116204 2.74414,-6.86034 2.94014,-2.940146 7.05635,-2.940146 3.92019,0 6.66433,2.548126 2.74414,2.548127 3.13615,6.468321 0.39202,-3.920194 3.13616,-6.468321 2.74414,-2.548126 6.66433,-2.548126 4.1162,0 6.86034,2.940146 2.94015,2.744136 2.94015,6.86034 0,-4.116204 2.74413,-6.86034 2.94015,-2.940146 7.05635,-2.940146 4.11621,0 6.86034,2.940146 2.54813,2.548126 2.94015,6.076301 0.19601,-3.528175 2.74413,-6.076301 2.94015,-2.940146 7.05635,-2.940146 3.9202,0 6.66433,2.548126 2.74414,2.548127 3.13616,6.468321 0.39202,-3.920194 3.13616,-6.468321 2.74413,-2.548126 6.66433,-2.548126 4.1162,0 6.86034,2.940146 2.94014,2.744136 2.94014,6.86034 0,4.116204 -2.94014,7.05635 -2.74414,2.744136 -6.86034,2.744136 -3.9202,0 -6.66433,-2.548127 -2.74414,-2.352116 -3.13616,-6.272311 -0.58803,3.920195 -3.13616,6.272311 -2.74413,2.548127 -6.66433,2.548127 -3.92019,0 -6.66433,-2.548127 -2.74413,-2.352116 -3.13615,-6.272311 -0.58803,3.724185 -3.13616,6.076302 -2.35211,2.352116 -5.68428,2.744136 3.72419,0.588029 6.27231,3.136155 2.54813,2.744136 2.54813,6.664331 0,3.920194 -2.54813,6.66433 -2.54812,2.744136 -6.27231,3.136156 3.72419,0.588029 6.27231,3.136155 2.54813,2.744136 2.54813,6.664331 0,3.920194 -2.54813,6.66433 -2.54812,2.744136 -6.27231,3.136156 3.72419,0.588029 6.27231,3.136155 2.54813,2.744136 2.54813,6.664331 0,3.920194 -2.54813,6.66433 -2.54812,2.74414 -6.27231,3.13616 3.72419,0.58802 6.27231,3.13615 2.54813,2.74414 2.54813,6.66433 0,3.9202 -2.54813,6.66433 -2.54812,2.74414 -6.27231,3.13616 3.72419,0.58803 6.27231,3.13615 2.54813,2.74414 2.54813,6.66433 0,3.9202 -2.54813,6.66433 -2.54812,2.74414 -6.27231,3.13616 3.72419,0.58803 6.27231,3.13616 2.54813,2.74413 2.54813,6.66433 0,4.1162 -2.94015,7.05635 -2.74413,2.74413 -6.86034,2.74413 -4.1162,0 -7.05635,-2.74413 -2.74413,-2.94015 -2.74413,-7.05635 0,-3.9202 2.54812,-6.66433 2.35212,-2.54813 6.27231,-3.13616 -3.92019,-0.39202 -6.27231,-3.13616 -2.54812,-2.74413 -2.54812,-6.66433 0,-3.92019 2.54812,-6.66433 2.35212,-2.54812 6.27231,-3.13615 -3.92019,-0.39202 -6.27231,-3.13616 -2.54812,-2.74413 -2.54812,-6.66433 0,-3.92019 2.54812,-6.66433 2.35212,-2.54813 6.27231,-3.13615 -3.92019,-0.39202 -6.27231,-3.13616 -2.54812,-2.744136 -2.54812,-6.66433 0,-3.920195 2.54812,-6.664331 2.35212,-2.548126 6.27231,-3.136155 -3.92019,-0.39202 -6.27231,-3.136156 -2.54812,-2.744136 -2.54812,-6.66433 0,-3.920195 2.54812,-6.664331 2.35212,-2.548126 6.27231,-3.136155 -3.92019,-0.39202 -6.27231,-3.136156 -2.54812,-2.744136 -2.54812,-6.66433 z"
         style="font-style:normal;font-variant:normal;font-weight:normal;font-stretch:normal;font-family:'5by7';-inkscape-font-specification:'5by7'"
         id="path4189" />
      <path
         d="m 765.53474,115.27339 q 0,-3.92019 2.54813,-6.66433 2.35211,-2.54813 6.27231,-3.13615 -3.9202,-0.39202 -6.27231,-3.13616 -2.54813,-2.744136 -2.54813,-6.66433 0,-3.920195 2.54813,-6.664331 2.35211,-2.548126 6.27231,-3.136155 -3.9202,-0.39202 -6.27231,-3.136156 -2.54813,-2.744136 -2.54813,-6.66433 0,-3.920195 2.54813,-6.664331 2.35211,-2.548126 6.27231,-3.136155 -3.9202,-0.39202 -6.27231,-3.136156 -2.54813,-2.744136 -2.54813,-6.66433 0,-4.116204 2.74413,-6.86034 2.94015,-2.940146 7.05635,-2.940146 4.11621,0 6.86035,2.940146 2.94014,2.744136 2.94014,6.86034 0,3.920194 -2.54813,6.66433 -2.54812,2.744136 -6.27231,3.136156 3.72419,0.588029 6.27231,3.136155 2.54813,2.744136 2.54813,6.664331 0,3.920194 -2.54813,6.66433 -2.54812,2.744136 -6.27231,3.136156 3.72419,0.588029 6.27231,3.136155 2.54813,2.744136 2.54813,6.664331 0,3.920194 -2.54813,6.66433 -2.54812,2.74414 -6.27231,3.13616 3.72419,0.58802 6.27231,3.13615 2.54813,2.74414 2.54813,6.66433 0,3.9202 -2.54813,6.66433 -2.54812,2.74414 -6.27231,3.13616 3.72419,0.58803 6.27231,3.13615 2.54813,2.74414 2.54813,6.66433 0,4.11621 -2.94014,7.05635 -2.74414,2.74414 -6.86035,2.74414 -4.1162,0 -7.05635,-2.74414 -2.74413,-2.94014 -2.74413,-7.05635 0,-3.92019 2.54813,-6.66433 2.35211,-2.54812 6.27231,-3.13615 -3.9202,-0.39202 -6.27231,-3.13616 -2.54813,-2.74413 -2.54813,-6.66433 z m 78.40389,0 q 0,-3.92019 2.54812,-6.66433 2.35212,-2.54813 6.27231,-3.13615 -3.92019,-0.39202 -6.27231,-3.13616 -2.54812,-2.744136 -2.54812,-6.66433 0,-3.920195 2.54812,-6.664331 2.35212,-2.548126 6.27231,-3.136155 -3.92019,-0.39202 -6.27231,-3.136156 -2.54812,-2.744136 -2.54812,-6.66433 0,-3.920195 2.54812,-6.664331 2.35212,-2.548126 6.27231,-3.136155 -3.92019,-0.39202 -6.27231,-3.136156 -2.54812,-2.744136 -2.54812,-6.66433 0,-4.116204 2.74413,-6.86034 2.94015,-2.940146 7.05635,-2.940146 4.11621,0 6.86034,2.940146 2.94015,2.744136 2.94015,6.86034 0,3.920194 -2.54813,6.66433 -2.54812,2.744136 -6.27231,3.136156 3.72419,0.588029 6.27231,3.136155 2.54813,2.744136 2.54813,6.664331 0,3.920194 -2.54813,6.66433 -2.54812,2.744136 -6.27231,3.136156 3.72419,0.588029 6.27231,3.136155 2.54813,2.744136 2.54813,6.664331 0,3.920194 -2.54813,6.66433 -2.54812,2.74414 -6.27231,3.13616 3.72419,0.58802 6.27231,3.13615 2.54813,2.74414 2.54813,6.66433 0,3.9202 -2.54813,6.66433 -2.54812,2.74414 -6.27231,3.13616 3.72419,0.58803 6.27231,3.13615 2.54813,2.74414 2.54813,6.66433 0,4.11621 -2.94015,7.05635 -2.74413,2.74414 -6.86034,2.74414 -4.1162,0 -7.05635,-2.74414 -2.74413,-2.94014 -2.74413,-7.05635 0,-3.92019 2.54812,-6.66433 2.35212,-2.54812 6.27231,-3.13615 -3.92019,-0.39202 -6.27231,-3.13616 -2.54812,-2.74413 -2.54812,-6.66433 z M 785.13571,36.869504 q 0,-4.116204 2.74414,-6.86034 2.94014,-2.940146 7.05635,-2.940146 3.92019,0 6.66433,2.548126 2.54812,2.548127 3.13615,6.272311 0.39202,-3.724184 3.13616,-6.272311 2.74413,-2.548126 6.66433,-2.548126 4.1162,0 6.86034,2.940146 2.94014,2.744136 2.94014,6.86034 0,-4.116204 2.74414,-6.86034 2.94015,-2.940146 7.05635,-2.940146 4.1162,0 6.86034,2.940146 2.94015,2.744136 2.94015,6.86034 0,4.116204 -2.94015,7.05635 -2.74414,2.744136 -6.86034,2.744136 -3.92019,0 -6.66433,-2.548127 -2.74414,-2.352116 -3.13616,-6.272311 -0.58802,3.920195 -3.13615,6.272311 -2.74414,2.548127 -6.66433,2.548127 -3.9202,0 -6.66433,-2.548127 -2.74414,-2.352116 -3.13616,-6.272311 -0.58803,3.920195 -3.13615,6.272311 -2.74414,2.548127 -6.66433,2.548127 -4.11621,0 -7.05635,-2.744136 -2.74414,-2.940146 -2.74414,-7.05635 z m 0,117.605836 q 0,-4.11621 2.74414,-6.86034 2.94014,-2.94015 7.05635,-2.94015 3.92019,0 6.66433,2.54813 2.74413,2.54812 3.13615,6.46832 0.39202,-3.9202 3.13616,-6.46832 2.74413,-2.54813 6.66433,-2.54813 3.92019,0 6.66433,2.54813 2.54813,2.54812 3.13615,6.27231 0.39202,-3.72419 3.13616,-6.27231 2.74414,-2.54813 6.66433,-2.54813 4.1162,0 6.86034,2.94015 2.94015,2.74413 2.94015,6.86034 0,4.1162 -2.94015,7.05635 -2.74414,2.74413 -6.86034,2.74413 -3.92019,0 -6.66433,-2.54812 -2.74414,-2.35212 -3.13616,-6.27232 -0.58802,3.9202 -3.13615,6.27232 -2.74414,2.54812 -6.66433,2.54812 -3.9202,0 -6.66433,-2.54812 -2.74414,-2.35212 -3.13616,-6.27232 -0.58803,3.9202 -3.13615,6.27232 -2.74414,2.54812 -6.66433,2.54812 -4.11621,0 -7.05635,-2.74413 -2.74414,-2.94015 -2.74414,-7.05635 z"
         style="font-style:normal;font-variant:normal;font-weight:normal;font-stretch:normal;font-family:'5by7';-inkscape-font-specification:'5by7'"
         id="path4191" />
      <path
         d="m 883.06404,134.87436 q 0,-4.1162 2.74413,-6.86034 2.94015,-2.94014 7.05635,-2.94014 4.11621,0 6.86034,2.94014 2.94015,2.74414 2.94015,6.86034 0,3.9202 -2.54813,6.66433 -2.54812,2.74414 -6.27231,3.13616 3.72419,0.58803 6.27231,3.13616 2.15611,2.54812 2.54813,5.88029 0.19601,-3.52818 2.74413,-6.0763 2.94015,-2.94015 7.05635,-2.94015 3.9202,0 6.66433,2.54813 2.74414,2.54812 3.13616,6.46832 0.39202,-3.9202 3.13616,-6.46832 2.74413,-2.54813 6.66433,-2.54813 3.92019,0 6.66433,2.54813 2.54812,2.54812 3.13615,6.27231 0.39202,-3.72419 3.13616,-6.27231 2.74413,-2.54813 6.66433,-2.54813 3.92019,0 6.66433,2.54813 2.54812,2.54812 3.13615,6.27231 0.39202,-3.72419 3.13616,-6.27231 2.74414,-2.54813 6.66433,-2.54813 4.1162,0 6.86034,2.94015 2.94015,2.74413 2.94015,6.86034 0,4.1162 -2.94015,7.05635 -2.74414,2.74413 -6.86034,2.74413 -3.92019,0 -6.66433,-2.54812 -2.74414,-2.35212 -3.13616,-6.27232 -0.58803,3.9202 -3.13615,6.27232 -2.74414,2.54812 -6.66433,2.54812 -3.9202,0 -6.66433,-2.54812 -2.74414,-2.35212 -3.13616,-6.27232 -0.58803,3.9202 -3.13615,6.27232 -2.74414,2.54812 -6.66433,2.54812 -3.9202,0 -6.66433,-2.54812 -2.74414,-2.35212 -3.13616,-6.27232 -0.58803,3.9202 -3.13616,6.27232 -2.74413,2.54812 -6.66433,2.54812 -3.92019,0 -6.66433,-2.54812 -2.74413,-2.35212 -3.13615,-6.27232 -0.58803,3.9202 -3.13616,6.27232 -2.74413,2.54812 -6.66433,2.54812 -4.1162,0 -7.05635,-2.74413 -2.74413,-2.94015 -2.74413,-7.05635 0,-3.9202 2.54812,-6.66433 2.35212,-2.54813 6.27231,-3.13616 -3.92019,-0.39202 -6.27231,-3.13616 -2.54812,-2.74413 -2.54812,-6.66433 z m 78.40388,-78.403884 q 0,-3.920195 2.54813,-6.664331 2.35212,-2.548126 6.27231,-3.136155 -3.72418,-0.39202 -6.0763,-2.744136 -2.35212,-2.352117 -2.74414,-6.076302 -0.58803,3.920195 -3.13615,6.272311 -2.74414,2.548127 -6.66433,2.548127 -3.9202,0 -6.66433,-2.548127 -2.74414,-2.352116 -3.13616,-6.272311 -0.58803,3.920195 -3.13615,6.272311 -2.74414,2.548127 -6.66433,2.548127 -3.9202,0 -6.66433,-2.548127 -2.74414,-2.352116 -3.13616,-6.272311 -0.58803,3.920195 -3.13616,6.272311 -2.74413,2.548127 -6.66433,2.548127 -3.92019,0 -6.66433,-2.548127 -2.74413,-2.352116 -3.13615,-6.272311 -0.58803,3.920195 -3.13616,6.272311 -2.74413,2.548127 -6.66433,2.548127 -4.1162,0 -7.05635,-2.744136 -2.74413,-2.940146 -2.74413,-7.05635 0,-4.116204 2.74413,-6.86034 2.94015,-2.940146 7.05635,-2.940146 3.9202,0 6.66433,2.548126 2.54813,2.548127 3.13616,6.272311 0.39202,-3.724184 3.13615,-6.272311 2.74414,-2.548126 6.66433,-2.548126 4.11621,0 6.86034,2.940146 2.94015,2.744136 2.94015,6.86034 0,-4.116204 2.74414,-6.86034 2.94014,-2.940146 7.05635,-2.940146 4.1162,0 6.86034,2.940146 2.54812,2.548126 2.94014,6.076301 0.19601,-3.528175 2.74414,-6.076301 2.94014,-2.940146 7.05635,-2.940146 4.1162,0 6.86034,2.940146 2.54812,2.548126 2.94014,6.076301 0.19601,-3.528175 2.74414,-6.076301 2.94015,-2.940146 7.05635,-2.940146 4.1162,0 6.86034,2.940146 2.94015,2.744136 2.94015,6.86034 0,3.920194 -2.54813,6.66433 -2.54813,2.744136 -6.27231,3.136156 3.72418,0.588029 6.27231,3.136155 2.54813,2.744136 2.54813,6.664331 0,4.116204 -2.94015,7.05635 -2.74414,2.744136 -6.86034,2.744136 -4.1162,0 -7.05635,-2.744136 -2.74414,-2.940146 -2.74414,-7.05635 z m -58.80291,58.802914 q 0,-4.1162 2.74413,-6.86034 2.94015,-2.94014 7.05635,-2.94014 4.11621,0 6.86034,2.94014 2.94015,2.74414 2.94015,6.86034 0,4.11621 -2.94015,7.05635 -2.74413,2.74414 -6.86034,2.74414 -4.1162,0 -7.05635,-2.74414 -2.74413,-2.94014 -2.74413,-7.05635 z m 39.20194,-39.201942 q 0,-4.116204 2.74414,-6.86034 2.94014,-2.940146 7.05635,-2.940146 4.1162,0 6.86034,2.940146 2.94014,2.744136 2.94014,6.86034 0,4.116204 -2.94014,7.05635 -2.74414,2.744136 -6.86034,2.744136 -4.11621,0 -7.05635,-2.744136 -2.74414,-2.940146 -2.74414,-7.05635 z M 922.26598,95.67242 q 0,-4.116204 2.74414,-6.86034 2.94014,-2.940146 7.05635,-2.940146 4.1162,0 6.86034,2.940146 2.94014,2.744136 2.94014,6.86034 0,4.116204 -2.94014,7.05635 -2.74414,2.74414 -6.86034,2.74414 -4.11621,0 -7.05635,-2.74414 -2.74414,-2.940146 -2.74414,-7.05635 z"
         style="font-style:normal;font-variant:normal;font-weight:normal;font-stretch:normal;font-family:'5by7';-inkscape-font-specification:'5by7'"
         id="path4193" />
      <path
         d="m 1000.5933,115.27339 q 0,-3.92019 2.5481,-6.66433 2.3521,-2.54813 6.2723,-3.13615 -3.9202,-0.39202 -6.2723,-3.13616 -2.5481,-2.744136 -2.5481,-6.66433 0,-3.920195 2.5481,-6.664331 2.3521,-2.548126 6.2723,-3.136155 -3.9202,-0.39202 -6.2723,-3.136156 -2.5481,-2.744136 -2.5481,-6.66433 0,-3.920195 2.5481,-6.664331 2.3521,-2.548126 6.2723,-3.136155 -3.9202,-0.39202 -6.2723,-3.136156 -2.5481,-2.744136 -2.5481,-6.66433 0,-4.116204 2.7441,-6.86034 2.9402,-2.940146 7.0564,-2.940146 4.1162,0 6.8603,2.940146 2.9401,2.744136 2.9401,6.86034 0,3.920194 -2.5481,6.66433 -2.5481,2.744136 -6.2723,3.136156 3.7242,0.588029 6.2723,3.136155 2.5481,2.744136 2.5481,6.664331 0,3.920194 -2.5481,6.66433 -2.5481,2.744136 -6.2723,3.136156 3.7242,0.588029 6.2723,3.136155 2.5481,2.744136 2.5481,6.664331 0,3.920194 -2.5481,6.66433 -2.5481,2.74414 -6.2723,3.13616 3.7242,0.58802 6.2723,3.13615 2.5481,2.74414 2.5481,6.66433 0,3.9202 -2.5481,6.66433 -2.5481,2.74414 -6.2723,3.13616 3.7242,0.58803 6.2723,3.13615 2.5481,2.74414 2.5481,6.66433 0,4.11621 -2.9401,7.05635 -2.7441,2.74414 -6.8603,2.74414 -4.1162,0 -7.0564,-2.74414 -2.7441,-2.94014 -2.7441,-7.05635 0,-3.92019 2.5481,-6.66433 2.3521,-2.54812 6.2723,-3.13615 -3.9202,-0.39202 -6.2723,-3.13616 -2.5481,-2.74413 -2.5481,-6.66433 z m 78.4039,0 q 0,-3.92019 2.5481,-6.66433 2.3521,-2.54813 6.2723,-3.13615 -3.9202,-0.39202 -6.2723,-3.13616 -2.5481,-2.744136 -2.5481,-6.66433 0,-3.920195 2.5481,-6.664331 2.3521,-2.548126 6.2723,-3.136155 -3.9202,-0.39202 -6.2723,-3.136156 -2.5481,-2.744136 -2.5481,-6.66433 0,-3.920195 2.5481,-6.664331 2.3521,-2.548126 6.2723,-3.136155 -3.9202,-0.39202 -6.2723,-3.136156 -2.5481,-2.744136 -2.5481,-6.66433 0,-4.116204 2.7441,-6.86034 2.9401,-2.940146 7.0563,-2.940146 4.1162,0 6.8604,2.940146 2.9401,2.744136 2.9401,6.86034 0,3.920194 -2.5481,6.66433 -2.5481,2.744136 -6.2723,3.136156 3.7242,0.588029 6.2723,3.136155 2.5481,2.744136 2.5481,6.664331 0,3.920194 -2.5481,6.66433 -2.5481,2.744136 -6.2723,3.136156 3.7242,0.588029 6.2723,3.136155 2.5481,2.744136 2.5481,6.664331 0,3.920194 -2.5481,6.66433 -2.5481,2.74414 -6.2723,3.13616 3.7242,0.58802 6.2723,3.13615 2.5481,2.74414 2.5481,6.66433 0,3.9202 -2.5481,6.66433 -2.5481,2.74414 -6.2723,3.13616 3.7242,0.58803 6.2723,3.13615 2.5481,2.74414 2.5481,6.66433 0,4.11621 -2.9401,7.05635 -2.7442,2.74414 -6.8604,2.74414 -4.1162,0 -7.0563,-2.74414 -2.7441,-2.94014 -2.7441,-7.05635 0,-3.92019 2.5481,-6.66433 2.3521,-2.54812 6.2723,-3.13615 -3.9202,-0.39202 -6.2723,-3.13616 -2.5481,-2.74413 -2.5481,-6.66433 z m -58.803,-78.403886 q 0,-4.116204 2.7442,-6.86034 2.9401,-2.940146 7.0563,-2.940146 3.9202,0 6.6644,2.548126 2.5481,2.548127 3.1361,6.272311 0.392,-3.724184 3.1362,-6.272311 2.7441,-2.548126 6.6643,-2.548126 4.1162,0 6.8603,2.940146 2.9402,2.744136 2.9402,6.86034 0,-4.116204 2.7441,-6.86034 2.9402,-2.940146 7.0564,-2.940146 4.1162,0 6.8603,2.940146 2.9402,2.744136 2.9402,6.86034 0,4.116204 -2.9402,7.05635 -2.7441,2.744136 -6.8603,2.744136 -3.9202,0 -6.6644,-2.548127 -2.7441,-2.352116 -3.1361,-6.272311 -0.588,3.920195 -3.1362,6.272311 -2.7441,2.548127 -6.6643,2.548127 -3.9202,0 -6.6643,-2.548127 -2.7442,-2.352116 -3.1362,-6.272311 -0.588,3.920195 -3.1361,6.272311 -2.7442,2.548127 -6.6644,2.548127 -4.1162,0 -7.0563,-2.744136 -2.7442,-2.940146 -2.7442,-7.05635 z m 0,117.605836 q 0,-4.11621 2.7442,-6.86034 2.9401,-2.94015 7.0563,-2.94015 3.9202,0 6.6644,2.54813 2.7441,2.54812 3.1361,6.46832 0.392,-3.9202 3.1362,-6.46832 2.7441,-2.54813 6.6643,-2.54813 3.9202,0 6.6643,2.54813 2.5482,2.54812 3.1362,6.27231 0.392,-3.72419 3.1361,-6.27231 2.7442,-2.54813 6.6644,-2.54813 4.1162,0 6.8603,2.94015 2.9402,2.74413 2.9402,6.86034 0,4.1162 -2.9402,7.05635 -2.7441,2.74413 -6.8603,2.74413 -3.9202,0 -6.6644,-2.54812 -2.7441,-2.35212 -3.1361,-6.27232 -0.588,3.9202 -3.1362,6.27232 -2.7441,2.54812 -6.6643,2.54812 -3.9202,0 -6.6643,-2.54812 -2.7442,-2.35212 -3.1362,-6.27232 -0.588,3.9202 -3.1361,6.27232 -2.7442,2.54812 -6.6644,2.54812 -4.1162,0 -7.0563,-2.74413 -2.7442,-2.94015 -2.7442,-7.05635 z"
         style="font-style:normal;font-variant:normal;font-weight:normal;font-stretch:normal;font-family:'5by7';-inkscape-font-specification:'5by7'"
         id="path4195" />
      <path
         d="m 1118.1225,36.869504 q 0,-4.116204 2.7441,-6.86034 2.9402,-2.940146 7.0564,-2.940146 4.1162,0 6.8603,2.940146 2.9402,2.744136 2.9402,6.86034 0,-4.116204 2.7441,-6.86034 2.9402,-2.940146 7.0564,-2.940146 4.1162,0 6.8603,2.940146 2.5481,2.548126 2.9402,6.076301 0.196,-3.528175 2.7441,-6.076301 2.9401,-2.940146 7.0563,-2.940146 3.9202,0 6.6644,2.548126 2.5481,2.548127 3.1361,6.272311 0.392,-3.724184 3.1362,-6.272311 2.7441,-2.548126 6.6643,-2.548126 4.1162,0 6.8603,2.940146 2.9402,2.744136 2.9402,6.86034 0,4.116204 -2.9402,7.05635 -2.7441,2.744136 -6.8603,2.744136 -3.9202,0 -6.6643,-2.548127 -2.7442,-2.352116 -3.1362,-6.272311 -0.588,3.920195 -3.1361,6.272311 -2.7442,2.548127 -6.6644,2.548127 -3.9202,0 -6.6643,-2.548127 -2.7441,-2.352116 -3.1361,-6.272311 -0.5881,3.920195 -3.1362,6.272311 -2.7441,2.548127 -6.6643,2.548127 -3.9202,0 -6.6644,-2.548127 -2.7441,-2.352116 -3.1361,-6.272311 -0.588,3.724185 -3.1362,6.076302 -2.3521,2.352116 -5.6843,2.744136 3.7242,0.588029 6.2724,3.136155 2.5481,2.744136 2.5481,6.664331 0,3.920194 -2.5481,6.66433 -2.5482,2.744136 -6.2724,3.136156 3.7242,0.588029 6.2724,3.136155 2.5481,2.744136 2.5481,6.664331 0,3.920194 -2.5481,6.66433 -2.5482,2.744136 -6.2724,3.136156 3.3322,0.588029 5.6843,3.136155 2.5482,2.352117 3.1362,5.684282 0.392,-3.724185 3.1361,-6.272311 2.7442,-2.548126 6.6644,-2.548126 4.1162,0 6.8603,2.940146 2.5481,2.548126 2.9402,6.076301 0.196,-3.528175 2.7441,-6.076301 2.9401,-2.940146 7.0563,-2.940146 4.1162,0 6.8604,2.940146 2.9401,2.744136 2.9401,6.86034 0,-4.116204 2.7442,-6.86034 2.9401,-2.940146 7.0563,-2.940146 4.1162,0 6.8603,2.940146 2.9402,2.744136 2.9402,6.86034 0,4.116204 -2.9402,7.05635 -2.7441,2.74414 -6.8603,2.74414 -3.9202,0 -6.6643,-2.54813 -2.7442,-2.35212 -3.1362,-6.272312 -0.588,3.724182 -3.1361,6.076302 -2.3521,2.35212 -5.6843,2.74414 3.7242,0.58802 6.2723,3.13615 2.5481,2.74414 2.5481,6.66433 0,4.11621 -2.9401,7.05635 -2.7442,2.74414 -6.8604,2.74414 -4.1162,0 -7.0563,-2.74414 -2.7441,-2.94014 -2.7441,-7.05635 0,-3.92019 2.5481,-6.66433 2.3521,-2.54813 6.2723,-3.13615 -3.7242,-0.39202 -6.0763,-2.74414 -2.3521,-2.35212 -2.7441,-6.076302 -0.5881,3.920192 -3.1362,6.272312 -2.7441,2.54813 -6.6643,2.54813 -3.9202,0 -6.6644,-2.54813 -2.7441,-2.35212 -3.1361,-6.272312 -0.588,3.724182 -3.1362,6.076302 -2.3521,2.35212 -5.6843,2.74414 3.7242,0.58802 6.2724,3.13615 2.5481,2.74414 2.5481,6.66433 0,3.9202 -2.5481,6.66433 -2.5482,2.74414 -6.2724,3.13616 3.7242,0.58803 6.2724,3.13615 2.5481,2.74414 2.5481,6.66433 0,3.9202 -2.5481,6.66433 -2.5482,2.74414 -6.2724,3.13616 3.7242,0.58803 6.2724,3.13616 2.5481,2.74413 2.5481,6.66433 0,4.1162 -2.9402,7.05635 -2.7441,2.74413 -6.8603,2.74413 -4.1162,0 -7.0564,-2.74413 -2.7441,-2.94015 -2.7441,-7.05635 0,-3.9202 2.5481,-6.66433 2.3522,-2.54813 6.2723,-3.13616 -3.9201,-0.39202 -6.2723,-3.13616 -2.5481,-2.74413 -2.5481,-6.66433 0,-3.92019 2.5481,-6.66433 2.3522,-2.54812 6.2723,-3.13615 -3.9201,-0.39202 -6.2723,-3.13616 -2.5481,-2.74413 -2.5481,-6.66433 0,-3.92019 2.5481,-6.66433 2.3522,-2.54813 6.2723,-3.13615 -3.9201,-0.39202 -6.2723,-3.13616 -2.5481,-2.744136 -2.5481,-6.66433 0,-3.920195 2.5481,-6.664331 2.3522,-2.548126 6.2723,-3.136155 -3.9201,-0.39202 -6.2723,-3.136156 -2.5481,-2.744136 -2.5481,-6.66433 0,-3.920195 2.5481,-6.664331 2.3522,-2.548126 6.2723,-3.136155 -3.9201,-0.39202 -6.2723,-3.136156 -2.5481,-2.744136 -2.5481,-6.66433 0,-3.920195 2.5481,-6.664331 2.3522,-2.548126 6.2723,-3.136155 -3.9201,-0.39202 -6.2723,-3.136156 -2.5481,-2.744136 -2.5481,-6.66433 z m 78.4039,19.600972 q 0,-4.116204 2.7441,-6.86034 2.9402,-2.940146 7.0564,-2.940146 4.1162,0 6.8603,2.940146 2.9402,2.744136 2.9402,6.86034 0,3.920194 -2.5482,6.66433 -2.5481,2.744136 -6.2723,3.136156 3.7242,0.588029 6.2723,3.136155 2.5482,2.744136 2.5482,6.664331 0,4.116204 -2.9402,7.05635 -2.7441,2.744136 -6.8603,2.744136 -4.1162,0 -7.0564,-2.744136 -2.7441,-2.940146 -2.7441,-7.05635 0,-3.920195 2.5481,-6.664331 2.3521,-2.548126 6.2723,-3.136155 -3.9202,-0.39202 -6.2723,-3.136156 -2.5481,-2.744136 -2.5481,-6.66433 z m 0,98.004864 q 0,-4.11621 2.7441,-6.86034 2.9402,-2.94015 7.0564,-2.94015 4.1162,0 6.8603,2.94015 2.9402,2.74413 2.9402,6.86034 0,4.1162 -2.9402,7.05635 -2.7441,2.74413 -6.8603,2.74413 -4.1162,0 -7.0564,-2.74413 -2.7441,-2.94015 -2.7441,-7.05635 z m -19.601,-19.60098 q 0,-4.1162 2.7442,-6.86034 2.9401,-2.94014 7.0563,-2.94014 4.1162,0 6.8603,2.94014 2.9402,2.74414 2.9402,6.86034 0,4.11621 -2.9402,7.05635 -2.7441,2.74414 -6.8603,2.74414 -4.1162,0 -7.0563,-2.74414 -2.7442,-2.94014 -2.7442,-7.05635 z"
         style="font-style:normal;font-variant:normal;font-weight:normal;font-stretch:normal;font-family:'5by7';-inkscape-font-specification:'5by7'"
         id="path4197" />
    </g>
    <g
       transform="matrix(0.29132377,0,0,0.29132377,500.63896,1380.3979)"
       style="font-style:normal;font-weight:normal;font-size:80.87173462px;line-height:125%;font-family:sans-serif;letter-spacing:0px;word-spacing:0px;fill:#000000;fill-opacity:1;stroke:none;stroke-width:1px;stroke-linecap:butt;stroke-linejoin:miter;stroke-opacity:1"
       id="flowRoot4197-6">
      <path
         d="m -1423.7142,-1163.1102 q 0,-1.6983 1.1322,-2.8305 1.2131,-1.2131 2.9114,-1.2131 1.6983,0 2.8305,1.2131 1.213,1.1322 1.213,2.8305 0,-1.6983 1.1323,-2.8305 1.213,-1.2131 2.9113,-1.2131 1.6983,0 2.8305,1.2131 1.2131,1.1322 1.2131,2.8305 0,-1.6983 1.1322,-2.8305 1.2131,-1.2131 2.9114,-1.2131 1.6983,0 2.8305,1.2131 1.0514,1.0514 1.2131,2.507 0.081,-1.4556 1.1322,-2.507 1.2131,-1.2131 2.9114,-1.2131 1.6983,0 2.8305,1.2131 1.2131,1.1322 1.2131,2.8305 0,1.6983 -1.2131,2.9114 -1.1322,1.1322 -2.8305,1.1322 -1.6175,0 -2.7497,-1.0513 -1.1322,-0.9705 -1.2939,-2.5879 -0.2426,1.6174 -1.294,2.5879 -1.1322,1.0513 -2.7496,1.0513 -1.6174,0 -2.7496,-1.0513 -1.1322,-0.9705 -1.294,-2.5879 -0.2426,1.6174 -1.2939,2.5879 -1.1322,1.0513 -2.7497,1.0513 -1.6174,0 -2.7496,-1.0513 -1.1322,-0.9705 -1.294,-2.5879 -0.2426,1.6174 -1.2939,2.5879 -1.1322,1.0513 -2.7496,1.0513 -1.6983,0 -2.9114,-1.1322 -1.1322,-1.2131 -1.1322,-2.9114 z m 8.0871,-32.3487 q 0,-1.6983 1.1323,-2.8305 1.213,-1.213 2.9113,-1.213 1.6983,0 2.8305,1.213 1.2131,1.1322 1.2131,2.8305 0,-1.6983 1.1322,-2.8305 1.2131,-1.213 2.9114,-1.213 1.6174,0 2.7496,1.0513 1.0514,1.0513 1.294,2.5879 0.1617,-1.5366 1.2939,-2.5879 1.1322,-1.0513 2.7497,-1.0513 1.6983,0 2.8305,1.213 1.2131,1.1322 1.2131,2.8305 0,1.6983 -1.2131,2.9114 -1.1322,1.1322 -2.8305,1.1322 -1.6175,0 -2.7497,-1.0513 -1.1322,-0.9705 -1.2939,-2.5879 -0.2426,1.6174 -1.294,2.5879 -1.1322,1.0513 -2.7496,1.0513 -1.6174,0 -2.7496,-1.0513 -1.1322,-0.9705 -1.294,-2.5879 -0.2426,1.6174 -1.2939,2.5879 -1.1322,1.0513 -2.7497,1.0513 -1.6983,0 -2.9113,-1.1322 -1.1323,-1.2131 -1.1323,-2.9114 z m 0,16.1744 q 0,-1.6983 1.1323,-2.8305 1.213,-1.2131 2.9113,-1.2131 1.6175,0 2.7497,1.0513 1.0513,1.0514 1.2939,2.5879 0.1618,-1.5365 1.294,-2.5879 1.1322,-1.0513 2.7496,-1.0513 1.6174,0 2.7496,1.0513 1.0514,1.0514 1.294,2.5879 0.1617,-1.5365 1.2939,-2.5879 1.1322,-1.0513 2.7497,-1.0513 1.6983,0 2.8305,1.2131 1.2131,1.1322 1.2131,2.8305 0,1.6983 -1.2131,2.9114 -1.1322,1.1322 -2.8305,1.1322 -1.6175,0 -2.7497,-1.0514 -1.1322,-0.9704 -1.2939,-2.5879 -0.2426,1.6175 -1.294,2.5879 -1.1322,1.0514 -2.7496,1.0514 -1.6174,0 -2.7496,-1.0514 -1.1322,-0.9704 -1.294,-2.5879 -0.2426,1.6175 -1.2939,2.5879 -1.1322,1.0514 -2.7497,1.0514 -1.6983,0 -2.9113,-1.1322 -1.1323,-1.2131 -1.1323,-2.9114 z m 24.2616,8.0872 q 0,-1.6983 1.1322,-2.8306 1.213,-1.213 2.9114,-1.213 1.6983,0 2.8305,1.213 1.213,1.1323 1.213,2.8306 0,1.6983 -1.213,2.9113 -1.1322,1.1322 -2.8305,1.1322 -1.6984,0 -2.9114,-1.1322 -1.1322,-1.213 -1.1322,-2.9113 z m -32.3487,-16.1744 q 0,-1.6983 1.1322,-2.8305 1.2131,-1.2131 2.9114,-1.2131 1.6983,0 2.8305,1.2131 1.213,1.1322 1.213,2.8305 0,1.6983 -1.213,2.9114 -1.1322,1.1322 -2.8305,1.1322 -1.6983,0 -2.9114,-1.1322 -1.1322,-1.2131 -1.1322,-2.9114 z"
         style="font-style:normal;font-variant:normal;font-weight:normal;font-stretch:normal;font-family:'5by7';-inkscape-font-specification:'5by7'"
         id="path4144" />
      <path
         d="m -1367.1356,-1163.1102 q 0,-1.6983 1.1322,-2.8305 1.2131,-1.2131 2.9114,-1.2131 1.6983,0 2.8305,1.2131 1.2131,1.1322 1.2131,2.8305 0,-1.6983 1.1322,-2.8305 1.2131,-1.2131 2.9114,-1.2131 1.6983,0 2.8305,1.2131 1.213,1.1322 1.213,2.8305 0,-1.6983 1.1323,-2.8305 1.213,-1.2131 2.9113,-1.2131 1.6983,0 2.8305,1.2131 1.2131,1.1322 1.2131,2.8305 0,1.6983 -1.2131,2.9114 -1.1322,1.1322 -2.8305,1.1322 -1.6174,0 -2.7496,-1.0513 -1.1322,-0.9705 -1.294,-2.5879 -0.2426,1.6174 -1.2939,2.5879 -1.1322,1.0513 -2.7496,1.0513 -1.6175,0 -2.7497,-1.0513 -1.1322,-0.9705 -1.2939,-2.5879 -0.2426,1.6174 -1.294,2.5879 -1.1322,1.0513 -2.7496,1.0513 -1.6983,0 -2.9114,-1.1322 -1.1322,-1.2131 -1.1322,-2.9114 z m 0,-32.3487 q 0,-1.6983 1.1322,-2.8305 1.2131,-1.213 2.9114,-1.213 1.6174,0 2.7496,1.0513 1.1322,1.0513 1.294,2.6688 0.1617,-1.6175 1.2939,-2.6688 1.1322,-1.0513 2.7497,-1.0513 1.6174,0 2.7496,1.0513 1.0513,1.0513 1.2939,2.5879 0.1618,-1.5366 1.294,-2.5879 1.1322,-1.0513 2.7496,-1.0513 1.6983,0 2.8305,1.213 1.2131,1.1322 1.2131,2.8305 0,1.6983 -1.2131,2.9114 -1.1322,1.1322 -2.8305,1.1322 -1.6174,0 -2.7496,-1.0513 -1.1322,-0.9705 -1.294,-2.5879 -0.2426,1.6174 -1.2939,2.5879 -1.1322,1.0513 -2.7496,1.0513 -1.6175,0 -2.7497,-1.0513 -1.1322,-0.9705 -1.2939,-2.5879 -0.2426,1.6174 -1.294,2.5879 -1.1322,1.0513 -2.7496,1.0513 -1.6983,0 -2.9114,-1.1322 -1.1322,-1.2131 -1.1322,-2.9114 z m -8.0872,16.1744 q 0,-1.6175 1.0514,-2.7497 0.9704,-1.0513 2.5879,-1.2939 -1.6175,-0.1617 -2.5879,-1.2939 -1.0514,-1.1323 -1.0514,-2.7497 0,-1.6983 1.1322,-2.8305 1.2131,-1.2131 2.9114,-1.2131 1.6983,0 2.8305,1.2131 1.2131,1.1322 1.2131,2.8305 0,1.6174 -1.0513,2.7497 -1.0514,1.1322 -2.5879,1.2939 1.5365,0.2426 2.5879,1.2939 1.0513,1.1322 1.0513,2.7497 0,1.6174 -1.0513,2.7496 -1.0514,1.1322 -2.5879,1.294 1.5365,0.2426 2.5879,1.2939 1.0513,1.1322 1.0513,2.7497 0,1.6983 -1.2131,2.9113 -1.1322,1.1322 -2.8305,1.1322 -1.6983,0 -2.9114,-1.1322 -1.1322,-1.213 -1.1322,-2.9113 0,-1.6175 1.0514,-2.7497 0.9704,-1.0513 2.5879,-1.2939 -1.6175,-0.1618 -2.5879,-1.294 -1.0514,-1.1322 -1.0514,-2.7496 z m 32.3487,0 q 0,-1.6175 1.0514,-2.7497 0.9704,-1.0513 2.5878,-1.2939 -1.6174,-0.1617 -2.5878,-1.2939 -1.0514,-1.1323 -1.0514,-2.7497 0,-1.6983 1.1322,-2.8305 1.2131,-1.2131 2.9114,-1.2131 1.6983,0 2.8305,1.2131 1.2131,1.1322 1.2131,2.8305 0,1.6174 -1.0513,2.7497 -1.0514,1.1322 -2.5879,1.2939 1.5365,0.2426 2.5879,1.2939 1.0513,1.1322 1.0513,2.7497 0,1.6174 -1.0513,2.7496 -1.0514,1.1322 -2.5879,1.294 1.5365,0.2426 2.5879,1.2939 1.0513,1.1322 1.0513,2.7497 0,1.6983 -1.2131,2.9113 -1.1322,1.1322 -2.8305,1.1322 -1.6983,0 -2.9114,-1.1322 -1.1322,-1.213 -1.1322,-2.9113 0,-1.6175 1.0514,-2.7497 0.9704,-1.0513 2.5878,-1.2939 -1.6174,-0.1618 -2.5878,-1.294 -1.0514,-1.1322 -1.0514,-2.7496 z"
         style="font-style:normal;font-variant:normal;font-weight:normal;font-stretch:normal;font-family:'5by7';-inkscape-font-specification:'5by7'"
         id="path4146" />
      <path
         d="m -1318.6441,-1203.546 q 0,-1.6983 1.1322,-2.8305 1.213,-1.2131 2.9113,-1.2131 1.6983,0 2.8305,1.2131 1.2131,1.1322 1.2131,2.8305 0,1.6174 -1.0513,2.7496 -1.0513,1.1322 -2.5879,1.294 1.5366,0.2426 2.5879,1.2939 0.8896,1.0513 1.0513,2.4262 0.081,-1.4557 1.1322,-2.5071 1.2131,-1.213 2.9114,-1.213 1.6983,0 2.8305,1.213 1.2131,1.1322 1.2131,2.8305 0,1.6983 -1.2131,2.9114 -1.1322,1.1322 -2.8305,1.1322 -1.6174,0 -2.7496,-1.0513 -1.1322,-0.9705 -1.294,-2.5879 -0.2426,1.5366 -1.2939,2.507 -0.9705,0.9705 -2.3453,1.1322 1.5366,0.2426 2.5879,1.294 1.0513,1.1322 1.0513,2.7496 0,1.6174 -1.0513,2.7497 -1.0513,1.1322 -2.5879,1.2939 1.5366,0.2426 2.5879,1.2939 1.0513,1.1322 1.0513,2.7497 0,1.6174 -1.0513,2.7496 -1.0513,1.1322 -2.5879,1.294 1.5366,0.2426 2.5879,1.2939 1.0513,1.1322 1.0513,2.7497 0,1.6174 -1.0513,2.7496 -1.0513,1.1322 -2.5879,1.2939 1.5366,0.2427 2.5879,1.294 1.0513,1.1322 1.0513,2.7496 0,1.6983 -1.2131,2.9114 -1.1322,1.1322 -2.8305,1.1322 -1.6983,0 -2.9113,-1.1322 -1.1322,-1.2131 -1.1322,-2.9114 0,-1.6174 1.0513,-2.7496 0.9704,-1.0513 2.5879,-1.294 -1.6175,-0.1617 -2.5879,-1.2939 -1.0513,-1.1322 -1.0513,-2.7496 0,-1.6175 1.0513,-2.7497 0.9704,-1.0513 2.5879,-1.2939 -1.6175,-0.1618 -2.5879,-1.294 -1.0513,-1.1322 -1.0513,-2.7496 0,-1.6175 1.0513,-2.7497 0.9704,-1.0513 2.5879,-1.2939 -1.6175,-0.1617 -2.5879,-1.2939 -1.0513,-1.1323 -1.0513,-2.7497 0,-1.6174 1.0513,-2.7496 0.9704,-1.0514 2.5879,-1.294 -1.5366,-0.1617 -2.507,-1.1322 -0.9705,-0.9704 -1.1322,-2.507 -0.2427,1.6174 -1.294,2.5879 -1.1322,1.0513 -2.7496,1.0513 -1.6983,0 -2.9114,-1.1322 -1.1322,-1.2131 -1.1322,-2.9114 0,-1.6983 1.1322,-2.8305 1.2131,-1.213 2.9114,-1.213 1.6983,0 2.8305,1.213 1.2131,1.1322 1.2131,2.8305 0,-1.6174 1.0513,-2.7496 0.9704,-1.0513 2.5879,-1.2939 -1.6175,-0.1618 -2.5879,-1.294 -1.0513,-1.1322 -1.0513,-2.7496 z m 8.0871,-8.0872 q 0,-1.6983 1.1322,-2.8305 1.2131,-1.2131 2.9114,-1.2131 1.6983,0 2.8305,1.2131 1.0514,1.0513 1.2131,2.507 0.081,-1.4557 1.1322,-2.507 1.2131,-1.2131 2.9114,-1.2131 1.6983,0 2.8305,1.2131 1.2131,1.1322 1.2131,2.8305 0,1.6983 -1.2131,2.9114 -1.1322,1.1322 -2.8305,1.1322 -1.6175,0 -2.7497,-1.0514 -1.1322,-0.9704 -1.2939,-2.5879 -0.2426,1.6175 -1.294,2.5879 -1.1322,1.0514 -2.7496,1.0514 -1.6983,0 -2.9114,-1.1322 -1.1322,-1.2131 -1.1322,-2.9114 z m 16.1744,8.0872 q 0,-1.6983 1.1322,-2.8305 1.2131,-1.2131 2.9114,-1.2131 1.6983,0 2.8305,1.2131 1.213,1.1322 1.213,2.8305 0,1.6983 -1.213,2.9113 -1.1322,1.1323 -2.8305,1.1323 -1.6983,0 -2.9114,-1.1323 -1.1322,-1.213 -1.1322,-2.9113 z"
         style="font-style:normal;font-variant:normal;font-weight:normal;font-stretch:normal;font-family:'5by7';-inkscape-font-specification:'5by7'"
         id="path4148" />
      <path
         d="m -1270.1527,-1203.546 q 0,-1.6983 1.1322,-2.8305 1.2131,-1.2131 2.9114,-1.2131 1.6983,0 2.8305,1.2131 1.2131,1.1322 1.2131,2.8305 0,1.6174 -1.0514,2.7496 -1.0513,1.1322 -2.5879,1.294 1.5366,0.2426 2.5879,1.2939 0.8896,1.0513 1.0514,2.4262 0.081,-1.4557 1.1322,-2.5071 1.2131,-1.213 2.9114,-1.213 1.6983,0 2.8305,1.213 1.213,1.1322 1.213,2.8305 0,1.6983 -1.213,2.9114 -1.1322,1.1322 -2.8305,1.1322 -1.6175,0 -2.7497,-1.0513 -1.1322,-0.9705 -1.2939,-2.5879 -0.2426,1.5366 -1.294,2.507 -0.9704,0.9705 -2.3453,1.1322 1.5366,0.2426 2.5879,1.294 1.0514,1.1322 1.0514,2.7496 0,1.6174 -1.0514,2.7497 -1.0513,1.1322 -2.5879,1.2939 1.5366,0.2426 2.5879,1.2939 1.0514,1.1322 1.0514,2.7497 0,1.6174 -1.0514,2.7496 -1.0513,1.1322 -2.5879,1.294 1.5366,0.2426 2.5879,1.2939 1.0514,1.1322 1.0514,2.7497 0,1.6983 -1.2131,2.9113 -1.1322,1.1322 -2.8305,1.1322 -1.6983,0 -2.9114,-1.1322 -1.1322,-1.213 -1.1322,-2.9113 0,-1.6175 1.0513,-2.7497 0.9705,-1.0513 2.5879,-1.2939 -1.6174,-0.1618 -2.5879,-1.294 -1.0513,-1.1322 -1.0513,-2.7496 0,-1.6175 1.0513,-2.7497 0.9705,-1.0513 2.5879,-1.2939 -1.6174,-0.1617 -2.5879,-1.2939 -1.0513,-1.1323 -1.0513,-2.7497 0,-1.6174 1.0513,-2.7496 0.9705,-1.0514 2.5879,-1.294 -1.5365,-0.1617 -2.507,-1.1322 -0.9705,-0.9704 -1.1322,-2.507 -0.2426,1.6174 -1.294,2.5879 -1.1322,1.0513 -2.7496,1.0513 -1.6983,0 -2.9114,-1.1322 -1.1322,-1.2131 -1.1322,-2.9114 0,-1.6983 1.1322,-2.8305 1.2131,-1.213 2.9114,-1.213 1.6983,0 2.8305,1.213 1.0514,1.0514 1.2131,2.5071 0.081,-1.3749 1.0513,-2.4262 0.9705,-1.0513 2.5879,-1.2939 -1.6174,-0.1618 -2.5879,-1.294 -1.0513,-1.1322 -1.0513,-2.7496 z m 8.0872,40.4358 q 0,-1.6983 1.1322,-2.8305 1.2131,-1.2131 2.9114,-1.2131 1.6983,0 2.8305,1.2131 1.213,1.1322 1.213,2.8305 0,-1.6983 1.1322,-2.8305 1.2131,-1.2131 2.9114,-1.2131 1.6983,0 2.8305,1.2131 1.2131,1.1322 1.2131,2.8305 0,1.6983 -1.2131,2.9114 -1.1322,1.1322 -2.8305,1.1322 -1.6174,0 -2.7496,-1.0513 -1.1322,-0.9705 -1.294,-2.5879 -0.2426,1.6174 -1.2939,2.5879 -1.1322,1.0513 -2.7496,1.0513 -1.6983,0 -2.9114,-1.1322 -1.1322,-1.2131 -1.1322,-2.9114 z m 16.1743,-8.0871 q 0,-1.6983 1.1322,-2.8306 1.2131,-1.213 2.9114,-1.213 1.6983,0 2.8305,1.213 1.2131,1.1323 1.2131,2.8306 0,1.6983 -1.2131,2.9113 -1.1322,1.1322 -2.8305,1.1322 -1.6983,0 -2.9114,-1.1322 -1.1322,-1.213 -1.1322,-2.9113 z"
         style="font-style:normal;font-variant:normal;font-weight:normal;font-stretch:normal;font-family:'5by7';-inkscape-font-specification:'5by7'"
         id="path4150" />
      <path
         d="m -1229.7484,-1179.2845 q 0,-1.6175 1.0513,-2.7497 0.9705,-1.0513 2.5879,-1.2939 -1.6174,-0.1617 -2.5879,-1.2939 -1.0513,-1.1323 -1.0513,-2.7497 0,-1.6174 1.0513,-2.7496 0.9705,-1.0514 2.5879,-1.294 -1.6174,-0.1617 -2.5879,-1.2939 -1.0513,-1.1322 -1.0513,-2.7497 0,-1.6983 1.1322,-2.8305 1.2131,-1.213 2.9114,-1.213 1.6983,0 2.8305,1.213 1.2131,1.1322 1.2131,2.8305 0,1.6175 -1.0514,2.7497 -1.0513,1.1322 -2.5879,1.2939 1.5366,0.2426 2.5879,1.294 1.0514,1.1322 1.0514,2.7496 0,1.6174 -1.0514,2.7497 -1.0513,1.1322 -2.5879,1.2939 1.5366,0.2426 2.5879,1.2939 1.0514,1.1322 1.0514,2.7497 0,1.6174 -1.0514,2.7496 -1.0513,1.1322 -2.5879,1.294 1.5366,0.2426 2.5879,1.2939 1.0514,1.1322 1.0514,2.7497 0,1.6983 -1.2131,2.9113 -1.1322,1.1322 -2.8305,1.1322 -1.6983,0 -2.9114,-1.1322 -1.1322,-1.213 -1.1322,-2.9113 0,-1.6175 1.0513,-2.7497 0.9705,-1.0513 2.5879,-1.2939 -1.6174,-0.1618 -2.5879,-1.294 -1.0513,-1.1322 -1.0513,-2.7496 z m 32.3487,0 q 0,-1.6175 1.0513,-2.7497 0.9705,-1.0513 2.5879,-1.2939 -1.6174,-0.1617 -2.5879,-1.2939 -1.0513,-1.1323 -1.0513,-2.7497 0,-1.6174 1.0513,-2.7496 0.9705,-1.0514 2.5879,-1.294 -1.6174,-0.1617 -2.5879,-1.2939 -1.0513,-1.1322 -1.0513,-2.7497 0,-1.6983 1.1322,-2.8305 1.2131,-1.213 2.9114,-1.213 1.6983,0 2.8305,1.213 1.213,1.1322 1.213,2.8305 0,1.6175 -1.0513,2.7497 -1.0513,1.1322 -2.5879,1.2939 1.5366,0.2426 2.5879,1.294 1.0513,1.1322 1.0513,2.7496 0,1.6174 -1.0513,2.7497 -1.0513,1.1322 -2.5879,1.2939 1.5366,0.2426 2.5879,1.2939 1.0513,1.1322 1.0513,2.7497 0,1.6174 -1.0513,2.7496 -1.0513,1.1322 -2.5879,1.294 1.5366,0.2426 2.5879,1.2939 1.0513,1.1322 1.0513,2.7497 0,1.6983 -1.213,2.9113 -1.1322,1.1322 -2.8305,1.1322 -1.6983,0 -2.9114,-1.1322 -1.1322,-1.213 -1.1322,-2.9113 0,-1.6175 1.0513,-2.7497 0.9705,-1.0513 2.5879,-1.2939 -1.6174,-0.1618 -2.5879,-1.294 -1.0513,-1.1322 -1.0513,-2.7496 z m -16.1744,8.0872 q 0,-1.6175 1.0514,-2.7497 0.9704,-1.0513 2.5879,-1.2939 -1.6175,-0.1618 -2.5879,-1.294 -1.0514,-1.1322 -1.0514,-2.7496 0,-1.6983 1.1322,-2.8305 1.2131,-1.2131 2.9114,-1.2131 1.6983,0 2.8305,1.2131 1.2131,1.1322 1.2131,2.8305 0,1.6174 -1.0513,2.7496 -1.0514,1.1322 -2.5879,1.294 1.5365,0.2426 2.5879,1.2939 1.0513,1.1322 1.0513,2.7497 0,1.6983 -1.2131,2.9113 -1.1322,1.1322 -2.8305,1.1322 -1.6983,0 -2.9114,-1.1322 -1.1322,-1.213 -1.1322,-2.9113 z m 8.0872,8.0871 q 0,-1.6983 1.1322,-2.8305 1.2131,-1.2131 2.9114,-1.2131 1.6983,0 2.8305,1.2131 1.2131,1.1322 1.2131,2.8305 0,1.6983 -1.2131,2.9114 -1.1322,1.1322 -2.8305,1.1322 -1.6983,0 -2.9114,-1.1322 -1.1322,-1.2131 -1.1322,-2.9114 z m -16.1743,0 q 0,-1.6983 1.1322,-2.8305 1.213,-1.2131 2.9113,-1.2131 1.6983,0 2.8306,1.2131 1.213,1.1322 1.213,2.8305 0,1.6983 -1.213,2.9114 -1.1323,1.1322 -2.8306,1.1322 -1.6983,0 -2.9113,-1.1322 -1.1322,-1.2131 -1.1322,-2.9114 z"
         style="font-style:normal;font-variant:normal;font-weight:normal;font-stretch:normal;font-family:'5by7';-inkscape-font-specification:'5by7'"
         id="path4152" />
      <path
         d="m -1148.9083,-1171.1973 q 0,-1.6175 1.0514,-2.7497 0.9704,-1.0513 2.5879,-1.2939 -1.5366,-0.1618 -2.5071,-1.1322 -0.9704,-0.9705 -1.1322,-2.5071 -0.2426,1.6175 -1.2939,2.5879 -1.1322,1.0514 -2.7497,1.0514 -1.6174,0 -2.7496,-1.0514 -1.1322,-0.9704 -1.2939,-2.5879 -0.2427,1.6175 -1.294,2.5879 -1.1322,1.0514 -2.7496,1.0514 -1.6175,0 -2.7497,-1.0514 -1.1322,-0.9704 -1.2939,-2.5879 -0.2426,1.6175 -1.294,2.5879 -1.1322,1.0514 -2.7496,1.0514 -1.6983,0 -2.9114,-1.1322 -1.1322,-1.2131 -1.1322,-2.9114 0,-1.6983 1.1322,-2.8305 1.2131,-1.2131 2.9114,-1.2131 1.6983,0 2.8305,1.2131 1.2131,1.1322 1.2131,2.8305 0,-1.6983 1.1322,-2.8305 1.2131,-1.2131 2.9114,-1.2131 1.6983,0 2.8305,1.2131 1.2131,1.1322 1.2131,2.8305 0,-1.6983 1.1322,-2.8305 1.213,-1.2131 2.9113,-1.2131 1.6175,0 2.7497,1.0513 1.1322,1.0514 1.2939,2.6688 0.1618,-1.4557 1.1322,-2.507 0.9705,-0.9705 2.5071,-1.2131 -1.6175,-0.1617 -2.5879,-1.2939 -1.0514,-1.1323 -1.0514,-2.7497 0,-1.6983 1.1322,-2.8305 1.2131,-1.2131 2.9114,-1.2131 1.6983,0 2.8305,1.2131 1.2131,1.1322 1.2131,2.8305 0,1.6174 -1.0513,2.7497 -1.0514,1.1322 -2.5879,1.2939 1.5365,0.2426 2.5879,1.2939 1.0513,1.1322 1.0513,2.7497 0,1.6174 -1.0513,2.7496 -1.0514,1.1322 -2.5879,1.294 1.5365,0.2426 2.5879,1.2939 1.0513,1.1322 1.0513,2.7497 0,1.6174 -1.0513,2.7496 -1.0514,1.1322 -2.5879,1.2939 1.5365,0.2427 2.5879,1.294 1.0513,1.1322 1.0513,2.7496 0,1.6983 -1.2131,2.9114 -1.1322,1.1322 -2.8305,1.1322 -1.6174,0 -2.7496,-1.0513 -1.1322,-0.9705 -1.294,-2.5879 -0.2426,1.6174 -1.2939,2.5879 -1.1322,1.0513 -2.7497,1.0513 -1.6174,0 -2.7496,-1.0513 -1.1322,-0.9705 -1.2939,-2.5879 -0.2427,1.6174 -1.294,2.5879 -1.1322,1.0513 -2.7496,1.0513 -1.6175,0 -2.7497,-1.0513 -1.1322,-0.9705 -1.2939,-2.5879 -0.2426,1.6174 -1.294,2.5879 -1.1322,1.0513 -2.7496,1.0513 -1.6983,0 -2.9114,-1.1322 -1.1322,-1.2131 -1.1322,-2.9114 0,-1.6983 1.1322,-2.8305 1.2131,-1.2131 2.9114,-1.2131 1.6174,0 2.7496,1.0514 1.1322,1.0513 1.294,2.6687 0.1617,-1.6174 1.2939,-2.6687 1.1322,-1.0514 2.7497,-1.0514 1.6983,0 2.8305,1.2131 1.0513,1.0514 1.2131,2.507 0.081,-1.4556 1.1322,-2.507 1.213,-1.2131 2.9113,-1.2131 1.6983,0 2.8306,1.2131 1.0513,1.0514 1.213,2.507 0.081,-1.3748 1.0514,-2.4261 0.9704,-1.0513 2.5879,-1.294 -1.6175,-0.1617 -2.5879,-1.2939 -1.0514,-1.1322 -1.0514,-2.7496 z m -24.2615,-24.2616 q 0,-1.6983 1.1322,-2.8305 1.2131,-1.213 2.9114,-1.213 1.6983,0 2.8305,1.213 1.2131,1.1322 1.2131,2.8305 0,-1.6983 1.1322,-2.8305 1.2131,-1.213 2.9114,-1.213 1.6983,0 2.8305,1.213 1.0513,1.0514 1.2131,2.5071 0.081,-1.4557 1.1322,-2.5071 1.213,-1.213 2.9113,-1.213 1.6983,0 2.8306,1.213 1.213,1.1322 1.213,2.8305 0,1.6983 -1.213,2.9114 -1.1323,1.1322 -2.8306,1.1322 -1.6174,0 -2.7496,-1.0513 -1.1322,-0.9705 -1.2939,-2.5879 -0.2427,1.6174 -1.294,2.5879 -1.1322,1.0513 -2.7496,1.0513 -1.6175,0 -2.7497,-1.0513 -1.1322,-0.9705 -1.2939,-2.5879 -0.2426,1.6174 -1.294,2.5879 -1.1322,1.0513 -2.7496,1.0513 -1.6983,0 -2.9114,-1.1322 -1.1322,-1.2131 -1.1322,-2.9114 z m -8.0872,24.2616 q 0,-1.6983 1.1322,-2.8306 1.2131,-1.213 2.9114,-1.213 1.6983,0 2.8305,1.213 1.2131,1.1323 1.2131,2.8306 0,1.6983 -1.2131,2.9113 -1.1322,1.1322 -2.8305,1.1322 -1.6983,0 -2.9114,-1.1322 -1.1322,-1.213 -1.1322,-2.9113 z"
         style="font-style:normal;font-variant:normal;font-weight:normal;font-stretch:normal;font-family:'5by7';-inkscape-font-specification:'5by7'"
         id="path4154" />
      <path
         d="m -1132.7655,-1179.2845 q 0,-1.6175 1.0513,-2.7497 0.9705,-1.0513 2.5879,-1.2939 -1.6174,-0.1617 -2.5879,-1.2939 -1.0513,-1.1323 -1.0513,-2.7497 0,-1.6174 1.0513,-2.7496 0.9705,-1.0514 2.5879,-1.294 -1.6174,-0.1617 -2.5879,-1.2939 -1.0513,-1.1322 -1.0513,-2.7497 0,-1.6983 1.1322,-2.8305 1.2131,-1.213 2.9114,-1.213 1.6983,0 2.8305,1.213 1.213,1.1322 1.213,2.8305 0,1.6175 -1.0513,2.7497 -1.0513,1.1322 -2.5879,1.2939 1.5366,0.2426 2.5879,1.294 0.8896,1.0513 1.0513,2.4261 0.081,-1.4557 1.1323,-2.507 1.213,-1.2131 2.9113,-1.2131 1.6983,0 2.8305,1.2131 1.2131,1.1322 1.2131,2.8305 0,1.6983 -1.2131,2.9114 -1.1322,1.1322 -2.8305,1.1322 -1.6174,0 -2.7496,-1.0513 -1.1322,-0.9705 -1.294,-2.5879 -0.2426,1.5365 -1.2939,2.507 -0.9705,0.9705 -2.3453,1.1322 1.5366,0.2426 2.5879,1.2939 1.0513,1.1322 1.0513,2.7497 0,1.6174 -1.0513,2.7496 -1.0513,1.1322 -2.5879,1.294 1.5366,0.2426 2.5879,1.2939 1.0513,1.1322 1.0513,2.7497 0,1.6174 -1.0513,2.7496 -1.0513,1.1322 -2.5879,1.2939 1.5366,0.2427 2.5879,1.294 1.0513,1.1322 1.0513,2.7496 0,1.6983 -1.213,2.9114 -1.1322,1.1322 -2.8305,1.1322 -1.6983,0 -2.9114,-1.1322 -1.1322,-1.2131 -1.1322,-2.9114 0,-1.6174 1.0513,-2.7496 0.9705,-1.0513 2.5879,-1.294 -1.6174,-0.1617 -2.5879,-1.2939 -1.0513,-1.1322 -1.0513,-2.7496 0,-1.6175 1.0513,-2.7497 0.9705,-1.0513 2.5879,-1.2939 -1.6174,-0.1618 -2.5879,-1.294 -1.0513,-1.1322 -1.0513,-2.7496 z m 16.1743,-16.1744 q 0,-1.6983 1.1322,-2.8305 1.2131,-1.213 2.9114,-1.213 1.6174,0 2.7496,1.0513 1.1323,1.0513 1.294,2.6688 0.1617,-1.6175 1.2939,-2.6688 1.1322,-1.0513 2.7497,-1.0513 1.6983,0 2.8305,1.213 1.2131,1.1322 1.2131,2.8305 0,1.6983 -1.2131,2.9114 -1.1322,1.1322 -2.8305,1.1322 -1.6175,0 -2.7497,-1.0513 -1.1322,-0.9705 -1.2939,-2.5879 -0.2426,1.6174 -1.294,2.5879 -1.1322,1.0513 -2.7496,1.0513 -1.6983,0 -2.9114,-1.1322 -1.1322,-1.2131 -1.1322,-2.9114 z m 16.1744,8.0872 q 0,-1.6983 1.1322,-2.8305 1.213,-1.2131 2.9114,-1.2131 1.6983,0 2.8305,1.2131 1.213,1.1322 1.213,2.8305 0,1.6983 -1.213,2.9114 -1.1322,1.1322 -2.8305,1.1322 -1.6984,0 -2.9114,-1.1322 -1.1322,-1.2131 -1.1322,-2.9114 z"
         style="font-style:normal;font-variant:normal;font-weight:normal;font-stretch:normal;font-family:'5by7';-inkscape-font-specification:'5by7'"
         id="path4156" />
      <path
         d="m -1051.9254,-1187.3717 q 0,-1.6983 1.1322,-2.8305 1.2131,-1.2131 2.9114,-1.2131 1.6983,0 2.8305,1.2131 1.2131,1.1322 1.2131,2.8305 0,1.6174 -1.0513,2.7497 -1.0514,1.1322 -2.5879,1.2939 1.5365,0.2426 2.5879,1.2939 1.0513,1.1322 1.0513,2.7497 0,1.6983 -1.2131,2.9114 -1.1322,1.1322 -2.8305,1.1322 -1.6174,0 -2.7496,-1.0514 -1.1322,-0.9704 -1.294,-2.5879 -0.2426,1.6175 -1.2939,2.5879 -1.1322,1.0514 -2.7497,1.0514 -1.6174,0 -2.7496,-1.0514 -1.1322,-0.9704 -1.294,-2.5879 -0.2426,1.6175 -1.2939,2.5879 -1.1322,1.0514 -2.7496,1.0514 -1.6175,0 -2.7497,-1.0514 -1.1322,-0.9704 -1.2939,-2.5879 -0.2426,1.6175 -1.294,2.5879 -1.1322,1.0514 -2.7496,1.0514 -1.6174,0 -2.7496,-1.0514 -1.1323,-0.9704 -1.294,-2.5879 -0.2426,1.5366 -1.2939,2.5071 -0.9705,0.9704 -2.3453,1.1322 1.5365,0.2426 2.5879,1.2939 1.0513,1.1322 1.0513,2.7497 0,1.6983 -1.2131,2.9113 -1.1322,1.1322 -2.8305,1.1322 -1.6983,0 -2.9114,-1.1322 -1.1322,-1.213 -1.1322,-2.9113 0,-1.6175 1.0514,-2.7497 0.9704,-1.0513 2.5879,-1.2939 -1.6175,-0.1618 -2.5879,-1.294 -1.0514,-1.1322 -1.0514,-2.7496 0,-1.6175 1.0514,-2.7497 0.9704,-1.0513 2.5879,-1.2939 -1.6175,-0.1617 -2.5879,-1.2939 -1.0514,-1.1323 -1.0514,-2.7497 0,-1.6983 1.1322,-2.8305 1.2131,-1.2131 2.9114,-1.2131 1.6983,0 2.8305,1.2131 1.2131,1.1322 1.2131,2.8305 0,1.6174 -1.0513,2.7497 -1.0514,1.1322 -2.5879,1.2939 1.5365,0.2426 2.5879,1.2939 0.8896,1.0514 1.0513,2.4262 0.081,-1.4557 1.1322,-2.507 1.2131,-1.2131 2.9114,-1.2131 1.6983,0 2.8305,1.2131 1.2131,1.1322 1.2131,2.8305 0,-1.6983 1.1322,-2.8305 1.2131,-1.2131 2.9114,-1.2131 1.6983,0 2.8305,1.2131 1.213,1.1322 1.213,2.8305 0,-1.6983 1.1323,-2.8305 1.213,-1.2131 2.9113,-1.2131 1.6983,0 2.8305,1.2131 1.0514,1.0513 1.2131,2.507 0.081,-1.3748 1.0514,-2.4262 0.9704,-1.0513 2.5879,-1.2939 -1.6175,-0.1617 -2.5879,-1.2939 -1.0514,-1.1323 -1.0514,-2.7497 z m -24.2615,-8.0872 q 0,-1.6983 1.1322,-2.8305 1.2131,-1.213 2.9114,-1.213 1.6983,0 2.8305,1.213 1.0513,1.0514 1.2131,2.5071 0.081,-1.4557 1.1322,-2.5071 1.2131,-1.213 2.9114,-1.213 1.6983,0 2.8305,1.213 1.0513,1.0514 1.213,2.5071 0.081,-1.4557 1.1323,-2.5071 1.213,-1.213 2.9113,-1.213 1.6983,0 2.8305,1.213 1.2131,1.1322 1.2131,2.8305 0,1.6983 -1.2131,2.9114 -1.1322,1.1322 -2.8305,1.1322 -1.6174,0 -2.7496,-1.0513 -1.1322,-0.9705 -1.294,-2.5879 -0.2426,1.6174 -1.2939,2.5879 -1.1322,1.0513 -2.7496,1.0513 -1.6175,0 -2.7497,-1.0513 -1.1322,-0.9705 -1.2939,-2.5879 -0.2426,1.6174 -1.294,2.5879 -1.1322,1.0513 -2.7496,1.0513 -1.6983,0 -2.9114,-1.1322 -1.1322,-1.2131 -1.1322,-2.9114 z m 0,32.3487 q 0,-1.6983 1.1322,-2.8305 1.2131,-1.2131 2.9114,-1.2131 1.6174,0 2.7496,1.0514 1.1322,1.0513 1.294,2.6687 0.1617,-1.6174 1.2939,-2.6687 1.1322,-1.0514 2.7497,-1.0514 1.6983,0 2.8305,1.2131 1.0513,1.0514 1.213,2.507 0.081,-1.4556 1.1323,-2.507 1.213,-1.2131 2.9113,-1.2131 1.6983,0 2.8305,1.2131 1.2131,1.1322 1.2131,2.8305 0,1.6983 -1.2131,2.9114 -1.1322,1.1322 -2.8305,1.1322 -1.6174,0 -2.7496,-1.0513 -1.1322,-0.9705 -1.294,-2.5879 -0.2426,1.6174 -1.2939,2.5879 -1.1322,1.0513 -2.7496,1.0513 -1.6175,0 -2.7497,-1.0513 -1.1322,-0.9705 -1.2939,-2.5879 -0.2426,1.6174 -1.294,2.5879 -1.1322,1.0513 -2.7496,1.0513 -1.6983,0 -2.9114,-1.1322 -1.1322,-1.2131 -1.1322,-2.9114 z"
         style="font-style:normal;font-variant:normal;font-weight:normal;font-stretch:normal;font-family:'5by7';-inkscape-font-specification:'5by7'"
         id="path4158" />
      <path
         d="m -979.10921,-1179.2845 q 0,-1.6175 1.05133,-2.7497 0.97046,-1.0513 2.58789,-1.2939 -1.53656,-0.1617 -2.50702,-1.1322 -0.97046,-0.9705 -1.1322,-2.507 -0.24262,1.6174 -1.29395,2.5879 -1.13221,1.0513 -2.74964,1.0513 -1.69831,0 -2.91138,-1.1322 -1.13221,-1.2131 -1.13221,-2.9114 0,-1.6983 1.13221,-2.8305 1.21307,-1.2131 2.91138,-1.2131 1.6983,0 2.83051,1.2131 1.05133,1.0513 1.21308,2.507 0.0809,-1.3748 1.05133,-2.4261 0.97046,-1.0514 2.58789,-1.294 -1.61743,-0.1617 -2.58789,-1.2939 -1.05133,-1.1322 -1.05133,-2.7497 0,-1.6174 1.05133,-2.7496 0.97046,-1.0513 2.58789,-1.2939 -1.61743,-0.1618 -2.58789,-1.294 -1.05133,-1.1322 -1.05133,-2.7496 0,-1.6175 1.05133,-2.7497 0.97046,-1.0513 2.58789,-1.2939 -1.61743,-0.1618 -2.58789,-1.294 -1.05133,-1.1322 -1.05133,-2.7496 0,-1.6983 1.1322,-2.8305 1.21308,-1.2131 2.91138,-1.2131 1.69831,0 2.83051,1.2131 1.21308,1.1322 1.21308,2.8305 0,1.6174 -1.05133,2.7496 -1.05134,1.1322 -2.5879,1.294 1.53656,0.2426 2.5879,1.2939 1.05133,1.1322 1.05133,2.7497 0,1.6174 -1.05133,2.7496 -1.05134,1.1322 -2.5879,1.294 1.53656,0.2426 2.5879,1.2939 1.05133,1.1322 1.05133,2.7496 0,1.6175 -1.05133,2.7497 -1.05134,1.1322 -2.5879,1.2939 1.53656,0.2426 2.5879,1.294 1.05133,1.1322 1.05133,2.7496 0,1.6174 -1.05133,2.7497 -1.05134,1.1322 -2.5879,1.2939 1.53656,0.2426 2.5879,1.2939 1.05133,1.1322 1.05133,2.7497 0,1.6174 -1.05133,2.7496 -1.05134,1.1322 -2.5879,1.294 1.53656,0.2426 2.5879,1.2939 1.05133,1.1322 1.05133,2.7497 0,1.6174 -1.05133,2.7496 -1.05134,1.1322 -2.5879,1.2939 1.53656,0.2427 2.5879,1.294 1.05133,1.1322 1.05133,2.7496 0,1.6983 -1.21308,2.9114 -1.1322,1.1322 -2.83051,1.1322 -1.6983,0 -2.91138,-1.1322 -1.1322,-1.2131 -1.1322,-2.9114 0,-1.6174 1.05133,-2.7496 0.97046,-1.0513 2.58789,-1.294 -1.53656,-0.1617 -2.50702,-1.1322 -0.97046,-0.9704 -1.1322,-2.507 -0.24262,1.6175 -1.29395,2.5879 -1.13221,1.0513 -2.74964,1.0513 -1.69831,0 -2.91138,-1.1322 -1.13221,-1.213 -1.13221,-2.9113 0,-1.6983 1.13221,-2.8306 1.21307,-1.213 2.91138,-1.213 1.61743,0 2.74964,1.0513 1.05133,1.0513 1.29395,2.5879 0.16174,-1.3748 1.1322,-2.3453 0.97046,-1.0513 2.50702,-1.2939 -1.61743,-0.1618 -2.58789,-1.294 -1.05133,-1.1322 -1.05133,-2.7496 z m -32.34869,0 q 0,-1.6175 1.0513,-2.7497 0.9705,-1.0513 2.5879,-1.2939 -1.6174,-0.1617 -2.5879,-1.2939 -1.0513,-1.1323 -1.0513,-2.7497 0,-1.6983 1.1322,-2.8305 1.2131,-1.2131 2.9114,-1.2131 1.6983,0 2.8305,1.2131 1.2131,1.1322 1.2131,2.8305 0,1.6174 -1.0514,2.7497 -1.0513,1.1322 -2.5879,1.2939 1.5366,0.2426 2.5879,1.2939 1.0514,1.1322 1.0514,2.7497 0,1.6174 -1.0514,2.7496 -1.0513,1.1322 -2.5879,1.294 1.5366,0.2426 2.5879,1.2939 1.0514,1.1322 1.0514,2.7497 0,1.6983 -1.2131,2.9113 -1.1322,1.1322 -2.8305,1.1322 -1.6983,0 -2.9114,-1.1322 -1.1322,-1.213 -1.1322,-2.9113 0,-1.6175 1.0513,-2.7497 0.9705,-1.0513 2.5879,-1.2939 -1.6174,-0.1618 -2.5879,-1.294 -1.0513,-1.1322 -1.0513,-2.7496 z m 8.0872,-16.1744 q 0,-1.6983 1.1322,-2.8305 1.213,-1.213 2.91135,-1.213 1.69831,0 2.83051,1.213 1.21308,1.1322 1.21308,2.8305 0,-1.6983 1.1322,-2.8305 1.21308,-1.213 2.91139,-1.213 1.6983,0 2.83051,1.213 1.21307,1.1322 1.21307,2.8305 0,1.6983 -1.21307,2.9114 -1.13221,1.1322 -2.83051,1.1322 -1.61744,0 -2.74964,-1.0513 -1.13221,-0.9705 -1.29395,-2.5879 -0.24262,1.6174 -1.29395,2.5879 -1.1322,1.0513 -2.74964,1.0513 -1.69835,0 -2.91135,-1.1322 -1.1322,-1.2131 -1.1322,-2.9114 z m 0,32.3487 q 0,-1.6983 1.1322,-2.8305 1.213,-1.2131 2.91135,-1.2131 1.69831,0 2.83051,1.2131 1.05133,1.0514 1.21308,2.507 0.0809,-1.4556 1.1322,-2.507 1.21308,-1.2131 2.91139,-1.2131 1.6983,0 2.83051,1.2131 1.21307,1.1322 1.21307,2.8305 0,1.6983 -1.21307,2.9114 -1.13221,1.1322 -2.83051,1.1322 -1.61744,0 -2.74964,-1.0513 -1.13221,-0.9705 -1.29395,-2.5879 -0.24262,1.6174 -1.29395,2.5879 -1.1322,1.0513 -2.74964,1.0513 -1.69835,0 -2.91135,-1.1322 -1.1322,-1.2131 -1.1322,-2.9114 z"
         style="font-style:normal;font-variant:normal;font-weight:normal;font-stretch:normal;font-family:'5by7';-inkscape-font-specification:'5by7'"
         id="path4160" />
      <path
         d="m -930.61776,-1187.3717 q 0,-1.6983 1.1322,-2.8305 1.21308,-1.2131 2.91139,-1.2131 1.6983,0 2.83051,1.2131 1.21307,1.1322 1.21307,2.8305 0,1.6174 -1.05133,2.7497 -1.05133,1.1322 -2.58789,1.2939 1.53656,0.2426 2.58789,1.2939 1.05133,1.1322 1.05133,2.7497 0,1.6983 -1.21307,2.9114 -1.13221,1.1322 -2.83051,1.1322 -1.61744,0 -2.74964,-1.0514 -1.13221,-0.9704 -1.29395,-2.5879 -0.24261,1.6175 -1.29395,2.5879 -1.1322,1.0514 -2.74964,1.0514 -1.61743,0 -2.74964,-1.0514 -1.1322,-0.9704 -1.29394,-2.5879 -0.24262,1.6175 -1.29395,2.5879 -1.13221,1.0514 -2.74964,1.0514 -1.61743,0 -2.74964,-1.0514 -1.1322,-0.9704 -1.29395,-2.5879 -0.24261,1.6175 -1.29394,2.5879 -1.13221,1.0514 -2.74964,1.0514 -1.61744,0 -2.74964,-1.0514 -1.13221,-0.9704 -1.29395,-2.5879 -0.24262,1.5366 -1.29395,2.5071 -0.97046,0.9704 -2.34528,1.1322 1.53656,0.2426 2.5879,1.2939 1.05133,1.1322 1.05133,2.7497 0,1.6983 -1.21308,2.9113 -1.1322,1.1322 -2.83051,1.1322 -1.6983,0 -2.91138,-1.1322 -1.1322,-1.213 -1.1322,-2.9113 0,-1.6175 1.05133,-2.7497 0.97046,-1.0513 2.58789,-1.2939 -1.61743,-0.1618 -2.58789,-1.294 -1.05133,-1.1322 -1.05133,-2.7496 0,-1.6175 1.05133,-2.7497 0.97046,-1.0513 2.58789,-1.2939 -1.61743,-0.1617 -2.58789,-1.2939 -1.05133,-1.1323 -1.05133,-2.7497 0,-1.6983 1.1322,-2.8305 1.21308,-1.2131 2.91138,-1.2131 1.69831,0 2.83051,1.2131 1.21308,1.1322 1.21308,2.8305 0,1.6174 -1.05133,2.7497 -1.05134,1.1322 -2.5879,1.2939 1.53656,0.2426 2.5879,1.2939 0.88959,1.0514 1.05133,2.4262 0.0809,-1.4557 1.1322,-2.507 1.21308,-1.2131 2.91139,-1.2131 1.6983,0 2.83051,1.2131 1.21307,1.1322 1.21307,2.8305 0,-1.6983 1.13221,-2.8305 1.21307,-1.2131 2.91138,-1.2131 1.69831,0 2.83051,1.2131 1.21308,1.1322 1.21308,2.8305 0,-1.6983 1.1322,-2.8305 1.21308,-1.2131 2.91138,-1.2131 1.69831,0 2.83051,1.2131 1.05134,1.0513 1.21308,2.507 0.0809,-1.3748 1.05133,-2.4262 0.97046,-1.0513 2.5879,-1.2939 -1.61744,-0.1617 -2.5879,-1.2939 -1.05133,-1.1323 -1.05133,-2.7497 z m -24.26152,-8.0872 q 0,-1.6983 1.1322,-2.8305 1.21308,-1.213 2.91139,-1.213 1.6983,0 2.83051,1.213 1.05133,1.0514 1.21307,2.5071 0.0809,-1.4557 1.13221,-2.5071 1.21307,-1.213 2.91138,-1.213 1.69831,0 2.83051,1.213 1.05133,1.0514 1.21308,2.5071 0.0809,-1.4557 1.1322,-2.5071 1.21308,-1.213 2.91138,-1.213 1.69831,0 2.83051,1.213 1.21308,1.1322 1.21308,2.8305 0,1.6983 -1.21308,2.9114 -1.1322,1.1322 -2.83051,1.1322 -1.61743,0 -2.74964,-1.0513 -1.1322,-0.9705 -1.29394,-2.5879 -0.24262,1.6174 -1.29395,2.5879 -1.13221,1.0513 -2.74964,1.0513 -1.61743,0 -2.74964,-1.0513 -1.1322,-0.9705 -1.29395,-2.5879 -0.24261,1.6174 -1.29394,2.5879 -1.13221,1.0513 -2.74964,1.0513 -1.69831,0 -2.91139,-1.1322 -1.1322,-1.2131 -1.1322,-2.9114 z m 0,32.3487 q 0,-1.6983 1.1322,-2.8305 1.21308,-1.2131 2.91139,-1.2131 1.61743,0 2.74964,1.0514 1.1322,1.0513 1.29394,2.6687 0.16175,-1.6174 1.29395,-2.6687 1.13221,-1.0514 2.74964,-1.0514 1.69831,0 2.83051,1.2131 1.05133,1.0514 1.21308,2.507 0.0809,-1.4556 1.1322,-2.507 1.21308,-1.2131 2.91138,-1.2131 1.69831,0 2.83051,1.2131 1.21308,1.1322 1.21308,2.8305 0,1.6983 -1.21308,2.9114 -1.1322,1.1322 -2.83051,1.1322 -1.61743,0 -2.74964,-1.0513 -1.1322,-0.9705 -1.29394,-2.5879 -0.24262,1.6174 -1.29395,2.5879 -1.13221,1.0513 -2.74964,1.0513 -1.61743,0 -2.74964,-1.0513 -1.1322,-0.9705 -1.29395,-2.5879 -0.24261,1.6174 -1.29394,2.5879 -1.13221,1.0513 -2.74964,1.0513 -1.69831,0 -2.91139,-1.1322 -1.1322,-1.2131 -1.1322,-2.9114 z"
         style="font-style:normal;font-variant:normal;font-weight:normal;font-stretch:normal;font-family:'5by7';-inkscape-font-specification:'5by7'"
         id="path4162" />
      <path
         d="m -914.475,-1179.2845 q 0,-1.6175 1.05133,-2.7497 0.97046,-1.0513 2.5879,-1.2939 -1.61744,-0.1617 -2.5879,-1.2939 -1.05133,-1.1323 -1.05133,-2.7497 0,-1.6174 1.05133,-2.7496 0.97046,-1.0514 2.5879,-1.294 -1.61744,-0.1617 -2.5879,-1.2939 -1.05133,-1.1322 -1.05133,-2.7497 0,-1.6983 1.13221,-2.8305 1.21307,-1.213 2.91138,-1.213 1.6983,0 2.83051,1.213 1.21307,1.1322 1.21307,2.8305 0,1.6175 -1.05133,2.7497 -1.05133,1.1322 -2.58789,1.2939 1.53656,0.2426 2.58789,1.294 1.05133,1.1322 1.05133,2.7496 0,1.6174 -1.05133,2.7497 -1.05133,1.1322 -2.58789,1.2939 1.53656,0.2426 2.58789,1.2939 1.05133,1.1322 1.05133,2.7497 0,1.6983 -1.21307,2.9114 -1.13221,1.1322 -2.83051,1.1322 -1.69831,0 -2.91138,-1.1322 -1.13221,-1.2131 -1.13221,-2.9114 z m 32.3487,0 q 0,-1.6175 1.05133,-2.7497 0.97046,-1.0513 2.58789,-1.2939 -1.61743,-0.1617 -2.58789,-1.2939 -1.05133,-1.1323 -1.05133,-2.7497 0,-1.6174 1.05133,-2.7496 0.97046,-1.0514 2.58789,-1.294 -1.61743,-0.1617 -2.58789,-1.2939 -1.05133,-1.1322 -1.05133,-2.7497 0,-1.6983 1.1322,-2.8305 1.21308,-1.213 2.91138,-1.213 1.69831,0 2.83051,1.213 1.21308,1.1322 1.21308,2.8305 0,1.6175 -1.05133,2.7497 -1.05134,1.1322 -2.5879,1.2939 1.53656,0.2426 2.5879,1.294 1.05133,1.1322 1.05133,2.7496 0,1.6174 -1.05133,2.7497 -1.05134,1.1322 -2.5879,1.2939 1.53656,0.2426 2.5879,1.2939 1.05133,1.1322 1.05133,2.7497 0,1.6983 -1.21308,2.9114 -1.1322,1.1322 -2.83051,1.1322 -1.6983,0 -2.91138,-1.1322 -1.1322,-1.2131 -1.1322,-2.9114 z m -8.08718,8.0872 q 0,-1.6983 1.13221,-2.8306 1.21307,-1.213 2.91138,-1.213 1.69831,0 2.83051,1.213 1.21308,1.1323 1.21308,2.8306 0,1.6983 -1.21308,2.9113 -1.1322,1.1322 -2.83051,1.1322 -1.69831,0 -2.91138,-1.1322 -1.13221,-1.213 -1.13221,-2.9113 z m -8.08717,8.0871 q 0,-1.6983 1.1322,-2.8305 1.21308,-1.2131 2.91139,-1.2131 1.6983,0 2.83051,1.2131 1.21307,1.1322 1.21307,2.8305 0,1.6983 -1.21307,2.9114 -1.13221,1.1322 -2.83051,1.1322 -1.69831,0 -2.91139,-1.1322 -1.1322,-1.2131 -1.1322,-2.9114 z m -8.08718,-8.0871 q 0,-1.6983 1.13221,-2.8306 1.21308,-1.213 2.91138,-1.213 1.69831,0 2.83051,1.213 1.21308,1.1323 1.21308,2.8306 0,1.6983 -1.21308,2.9113 -1.1322,1.1322 -2.83051,1.1322 -1.6983,0 -2.91138,-1.1322 -1.13221,-1.213 -1.13221,-2.9113 z"
         style="font-style:normal;font-variant:normal;font-weight:normal;font-stretch:normal;font-family:'5by7';-inkscape-font-specification:'5by7'"
         id="path4164" />
      <path
         d="m -833.63488,-1187.3717 q 0,-1.6983 1.1322,-2.8305 1.21308,-1.2131 2.91139,-1.2131 1.6983,0 2.83051,1.2131 1.21307,1.1322 1.21307,2.8305 0,1.6174 -1.05133,2.7497 -1.05133,1.1322 -2.58789,1.2939 1.53656,0.2426 2.58789,1.2939 1.05133,1.1322 1.05133,2.7497 0,1.6983 -1.21307,2.9114 -1.13221,1.1322 -2.83051,1.1322 -1.61744,0 -2.74964,-1.0514 -1.13221,-0.9704 -1.29395,-2.5879 -0.24262,1.6175 -1.29395,2.5879 -1.1322,1.0514 -2.74964,1.0514 -1.61743,0 -2.74964,-1.0514 -1.1322,-0.9704 -1.29394,-2.5879 -0.24262,1.6175 -1.29395,2.5879 -1.13221,1.0514 -2.74964,1.0514 -1.61743,0 -2.74964,-1.0514 -1.1322,-0.9704 -1.29395,-2.5879 -0.24261,1.6175 -1.29394,2.5879 -1.13221,1.0514 -2.74964,1.0514 -1.61744,0 -2.74964,-1.0514 -1.13221,-0.9704 -1.29395,-2.5879 -0.24262,1.5366 -1.29395,2.5071 -0.97046,0.9704 -2.34528,1.1322 1.53656,0.2426 2.5879,1.2939 1.05133,1.1322 1.05133,2.7497 0,1.6983 -1.21308,2.9113 -1.1322,1.1322 -2.83051,1.1322 -1.6983,0 -2.91138,-1.1322 -1.1322,-1.213 -1.1322,-2.9113 0,-1.6175 1.05133,-2.7497 0.97046,-1.0513 2.58789,-1.2939 -1.61743,-0.1618 -2.58789,-1.294 -1.05133,-1.1322 -1.05133,-2.7496 0,-1.6175 1.05133,-2.7497 0.97046,-1.0513 2.58789,-1.2939 -1.61743,-0.1617 -2.58789,-1.2939 -1.05133,-1.1323 -1.05133,-2.7497 0,-1.6983 1.1322,-2.8305 1.21308,-1.2131 2.91138,-1.2131 1.69831,0 2.83051,1.2131 1.21308,1.1322 1.21308,2.8305 0,1.6174 -1.05133,2.7497 -1.05134,1.1322 -2.5879,1.2939 1.53656,0.2426 2.5879,1.2939 0.88959,1.0514 1.05133,2.4262 0.0809,-1.4557 1.1322,-2.507 1.21308,-1.2131 2.91139,-1.2131 1.6983,0 2.83051,1.2131 1.21307,1.1322 1.21307,2.8305 0,-1.6983 1.13221,-2.8305 1.21307,-1.2131 2.91138,-1.2131 1.69831,0 2.83051,1.2131 1.21308,1.1322 1.21308,2.8305 0,-1.6983 1.1322,-2.8305 1.21308,-1.2131 2.91138,-1.2131 1.69831,0 2.83051,1.2131 1.05134,1.0513 1.21308,2.507 0.0809,-1.3748 1.05133,-2.4262 0.97046,-1.0513 2.5879,-1.2939 -1.61744,-0.1617 -2.5879,-1.2939 -1.05133,-1.1323 -1.05133,-2.7497 z m -24.26152,-8.0872 q 0,-1.6983 1.1322,-2.8305 1.21308,-1.213 2.91139,-1.213 1.6983,0 2.83051,1.213 1.05133,1.0514 1.21307,2.5071 0.0809,-1.4557 1.13221,-2.5071 1.21307,-1.213 2.91138,-1.213 1.69831,0 2.83051,1.213 1.05133,1.0514 1.21308,2.5071 0.0809,-1.4557 1.1322,-2.5071 1.21308,-1.213 2.91138,-1.213 1.69831,0 2.83051,1.213 1.21308,1.1322 1.21308,2.8305 0,1.6983 -1.21308,2.9114 -1.1322,1.1322 -2.83051,1.1322 -1.61743,0 -2.74964,-1.0513 -1.1322,-0.9705 -1.29394,-2.5879 -0.24262,1.6174 -1.29395,2.5879 -1.13221,1.0513 -2.74964,1.0513 -1.61743,0 -2.74964,-1.0513 -1.1322,-0.9705 -1.29395,-2.5879 -0.24261,1.6174 -1.29394,2.5879 -1.13221,1.0513 -2.74964,1.0513 -1.69831,0 -2.91139,-1.1322 -1.1322,-1.2131 -1.1322,-2.9114 z m 0,32.3487 q 0,-1.6983 1.1322,-2.8305 1.21308,-1.2131 2.91139,-1.2131 1.61743,0 2.74964,1.0514 1.1322,1.0513 1.29394,2.6687 0.16175,-1.6174 1.29395,-2.6687 1.13221,-1.0514 2.74964,-1.0514 1.69831,0 2.83051,1.2131 1.05133,1.0514 1.21308,2.507 0.0809,-1.4556 1.1322,-2.507 1.21308,-1.2131 2.91138,-1.2131 1.69831,0 2.83051,1.2131 1.21308,1.1322 1.21308,2.8305 0,1.6983 -1.21308,2.9114 -1.1322,1.1322 -2.83051,1.1322 -1.61743,0 -2.74964,-1.0513 -1.1322,-0.9705 -1.29394,-2.5879 -0.24262,1.6174 -1.29395,2.5879 -1.13221,1.0513 -2.74964,1.0513 -1.61743,0 -2.74964,-1.0513 -1.1322,-0.9705 -1.29395,-2.5879 -0.24261,1.6174 -1.29394,2.5879 -1.13221,1.0513 -2.74964,1.0513 -1.69831,0 -2.91139,-1.1322 -1.1322,-1.2131 -1.1322,-2.9114 z"
         style="font-style:normal;font-variant:normal;font-weight:normal;font-stretch:normal;font-family:'5by7';-inkscape-font-specification:'5by7'"
         id="path4166" />
      <path
         d="m -809.40495,-1203.546 q 0,-1.6175 1.05134,-2.7497 0.97046,-1.0513 2.58789,-1.2939 -1.53656,-0.1618 -2.50702,-1.1322 -0.97046,-0.9705 -1.13221,-2.5071 -0.24261,1.6175 -1.29394,2.5879 -1.13221,1.0514 -2.74964,1.0514 -1.69831,0 -2.91138,-1.1322 -1.13221,-1.2131 -1.13221,-2.9114 0,-1.6983 1.13221,-2.8305 1.21307,-1.2131 2.91138,-1.2131 1.61743,0 2.74964,1.0513 1.1322,1.0514 1.29394,2.6688 0.16175,-1.6174 1.29395,-2.6688 1.13221,-1.0513 2.74964,-1.0513 1.69831,0 2.83051,1.2131 1.21308,1.1322 1.21308,2.8305 0,1.6174 -1.05133,2.7496 -1.05134,1.1322 -2.5879,1.294 1.53656,0.2426 2.5879,1.2939 1.05133,1.1322 1.05133,2.7497 0,1.6174 -1.05133,2.7496 -1.05134,1.1322 -2.5879,1.294 1.53656,0.2426 2.5879,1.2939 1.05133,1.1322 1.05133,2.7496 0,1.6175 -1.05133,2.7497 -1.05134,1.1322 -2.5879,1.2939 1.53656,0.2426 2.5879,1.294 1.05133,1.1322 1.05133,2.7496 0,1.6174 -1.05133,2.7497 -1.05134,1.1322 -2.5879,1.2939 1.53656,0.2426 2.5879,1.2939 1.05133,1.1322 1.05133,2.7497 0,1.6174 -1.05133,2.7496 -1.05134,1.1322 -2.5879,1.294 1.53656,0.2426 2.5879,1.2939 1.05133,1.1322 1.05133,2.7497 0,1.6174 -1.05133,2.7496 -1.05134,1.1322 -2.5879,1.2939 1.37482,0.2427 2.42615,1.2131 1.05133,1.0514 1.21308,2.507 0.16174,-1.6174 1.29395,-2.6687 1.1322,-1.0514 2.74963,-1.0514 1.69831,0 2.83052,1.2131 1.21307,1.1322 1.21307,2.8305 0,1.6983 -1.21307,2.9114 -1.13221,1.1322 -2.83052,1.1322 -1.61743,0 -2.74963,-1.0513 -1.13221,-0.9705 -1.29395,-2.5879 -0.24262,1.6174 -1.29395,2.5879 -1.1322,1.0513 -2.74964,1.0513 -1.61743,0 -2.74964,-1.0513 -1.1322,-0.9705 -1.29395,-2.5879 -0.24261,1.6174 -1.29394,2.5879 -1.13221,1.0513 -2.74964,1.0513 -1.69831,0 -2.91138,-1.1322 -1.13221,-1.2131 -1.13221,-2.9114 0,-1.6983 1.13221,-2.8305 1.21307,-1.2131 2.91138,-1.2131 1.61743,0 2.74964,1.0514 1.1322,1.0513 1.29394,2.6687 0.16175,-1.4556 1.13221,-2.507 0.97046,-0.9704 2.50702,-1.2131 -1.61743,-0.1617 -2.58789,-1.2939 -1.05134,-1.1322 -1.05134,-2.7496 0,-1.6175 1.05134,-2.7497 0.97046,-1.0513 2.58789,-1.2939 -1.61743,-0.1618 -2.58789,-1.294 -1.05134,-1.1322 -1.05134,-2.7496 0,-1.6175 1.05134,-2.7497 0.97046,-1.0513 2.58789,-1.2939 -1.61743,-0.1617 -2.58789,-1.2939 -1.05134,-1.1323 -1.05134,-2.7497 0,-1.6174 1.05134,-2.7496 0.97046,-1.0514 2.58789,-1.294 -1.61743,-0.1617 -2.58789,-1.2939 -1.05134,-1.1322 -1.05134,-2.7497 0,-1.6174 1.05134,-2.7496 0.97046,-1.0513 2.58789,-1.2939 -1.61743,-0.1618 -2.58789,-1.294 -1.05134,-1.1322 -1.05134,-2.7496 z"
         style="font-style:normal;font-variant:normal;font-weight:normal;font-stretch:normal;font-family:'5by7';-inkscape-font-specification:'5by7'"
         id="path4168" />
      <path
         d="m -777.02464,-1163.1102 q 0,-1.6983 1.13221,-2.8305 1.21307,-1.2131 2.91138,-1.2131 1.69831,0 2.83051,1.2131 1.21308,1.1322 1.21308,2.8305 0,-1.6983 1.1322,-2.8305 1.21308,-1.2131 2.91138,-1.2131 1.69831,0 2.83052,1.2131 1.21307,1.1322 1.21307,2.8305 0,-1.6983 1.13221,-2.8305 1.21307,-1.2131 2.91138,-1.2131 1.6983,0 2.83051,1.2131 1.21308,1.1322 1.21308,2.8305 0,1.6983 -1.21308,2.9114 -1.13221,1.1322 -2.83051,1.1322 -1.61744,0 -2.74964,-1.0513 -1.1322,-0.9705 -1.29395,-2.5879 -0.24261,1.6174 -1.29395,2.5879 -1.1322,1.0513 -2.74964,1.0513 -1.61743,0 -2.74963,-1.0513 -1.13221,-0.9705 -1.29395,-2.5879 -0.24262,1.6174 -1.29395,2.5879 -1.1322,1.0513 -2.74964,1.0513 -1.69831,0 -2.91138,-1.1322 -1.13221,-1.2131 -1.13221,-2.9114 z m 0,-32.3487 q 0,-1.6983 1.13221,-2.8305 1.21307,-1.213 2.91138,-1.213 1.61744,0 2.74964,1.0513 1.1322,1.0513 1.29395,2.6688 0.16174,-1.6175 1.29395,-2.6688 1.1322,-1.0513 2.74963,-1.0513 1.61744,0 2.74964,1.0513 1.05134,1.0513 1.29395,2.5879 0.16175,-1.5366 1.29395,-2.5879 1.1322,-1.0513 2.74964,-1.0513 1.6983,0 2.83051,1.213 1.21308,1.1322 1.21308,2.8305 0,1.6983 -1.21308,2.9114 -1.13221,1.1322 -2.83051,1.1322 -1.61744,0 -2.74964,-1.0513 -1.1322,-0.9705 -1.29395,-2.5879 -0.24261,1.6174 -1.29395,2.5879 -1.1322,1.0513 -2.74964,1.0513 -1.61743,0 -2.74963,-1.0513 -1.13221,-0.9705 -1.29395,-2.5879 -0.24262,1.6174 -1.29395,2.5879 -1.1322,1.0513 -2.74964,1.0513 -1.69831,0 -2.91138,-1.1322 -1.13221,-1.2131 -1.13221,-2.9114 z m -8.08717,16.1744 q 0,-1.6175 1.05133,-2.7497 0.97046,-1.0513 2.5879,-1.2939 -1.61744,-0.1617 -2.5879,-1.2939 -1.05133,-1.1323 -1.05133,-2.7497 0,-1.6983 1.13221,-2.8305 1.21307,-1.2131 2.91138,-1.2131 1.6983,0 2.83051,1.2131 1.21307,1.1322 1.21307,2.8305 0,1.6174 -1.05133,2.7497 -1.05133,1.1322 -2.58789,1.2939 1.53656,0.2426 2.58789,1.2939 1.05133,1.1322 1.05133,2.7497 0,1.6174 -1.05133,2.7496 -1.05133,1.1322 -2.58789,1.294 1.53656,0.2426 2.58789,1.2939 1.05133,1.1322 1.05133,2.7497 0,1.6983 -1.21307,2.9113 -1.13221,1.1322 -2.83051,1.1322 -1.69831,0 -2.91138,-1.1322 -1.13221,-1.213 -1.13221,-2.9113 0,-1.6175 1.05133,-2.7497 0.97046,-1.0513 2.5879,-1.2939 -1.61744,-0.1618 -2.5879,-1.294 -1.05133,-1.1322 -1.05133,-2.7496 z m 32.3487,0 q 0,-1.6175 1.05133,-2.7497 0.97046,-1.0513 2.58789,-1.2939 -1.61743,-0.1617 -2.58789,-1.2939 -1.05133,-1.1323 -1.05133,-2.7497 0,-1.6983 1.1322,-2.8305 1.21308,-1.2131 2.91138,-1.2131 1.69831,0 2.83051,1.2131 1.21308,1.1322 1.21308,2.8305 0,1.6174 -1.05133,2.7497 -1.05134,1.1322 -2.5879,1.2939 1.53656,0.2426 2.5879,1.2939 1.05133,1.1322 1.05133,2.7497 0,1.6174 -1.05133,2.7496 -1.05134,1.1322 -2.5879,1.294 1.53656,0.2426 2.5879,1.2939 1.05133,1.1322 1.05133,2.7497 0,1.6983 -1.21308,2.9113 -1.1322,1.1322 -2.83051,1.1322 -1.6983,0 -2.91138,-1.1322 -1.1322,-1.213 -1.1322,-2.9113 0,-1.6175 1.05133,-2.7497 0.97046,-1.0513 2.58789,-1.2939 -1.61743,-0.1618 -2.58789,-1.294 -1.05133,-1.1322 -1.05133,-2.7496 z"
         style="font-style:normal;font-variant:normal;font-weight:normal;font-stretch:normal;font-family:'5by7';-inkscape-font-specification:'5by7'"
         id="path4170" />
      <path
         d="m -736.62035,-1195.4589 q 0,-1.6983 1.1322,-2.8305 1.21308,-1.213 2.91138,-1.213 1.61744,0 2.74964,1.0513 1.13221,1.0513 1.29395,2.6688 0.16174,-1.6175 1.29395,-2.6688 1.1322,-1.0513 2.74964,-1.0513 1.61743,0 2.74964,1.0513 1.05133,1.0513 1.29394,2.5879 0.16175,-1.5366 1.29395,-2.5879 1.13221,-1.0513 2.74964,-1.0513 1.69831,0 2.83051,1.213 1.21308,1.1322 1.21308,2.8305 0,-1.6983 1.1322,-2.8305 1.21308,-1.213 2.91138,-1.213 1.69831,0 2.83051,1.213 1.21308,1.1322 1.21308,2.8305 0,1.6983 -1.21308,2.9114 -1.1322,1.1322 -2.83051,1.1322 -1.61743,0 -2.74964,-1.0513 -1.1322,-0.9705 -1.29394,-2.5879 -0.24262,1.6174 -1.29395,2.5879 -1.13221,1.0513 -2.74964,1.0513 -1.61743,0 -2.74964,-1.0513 -1.1322,-0.9705 -1.29395,-2.5879 -0.24261,1.6174 -1.29394,2.5879 -1.13221,1.0513 -2.74964,1.0513 -1.61744,0 -2.74964,-1.0513 -1.13221,-0.9705 -1.29395,-2.5879 -0.24262,1.5366 -1.29395,2.507 -0.97046,0.9705 -2.34528,1.1322 1.53656,0.2426 2.5879,1.294 1.05133,1.1322 1.05133,2.7496 0,1.6174 -1.05133,2.7497 -1.05134,1.1322 -2.5879,1.2939 1.53656,0.2426 2.5879,1.2939 1.05133,1.1322 1.05133,2.7497 0,1.6174 -1.05133,2.7496 -1.05134,1.1322 -2.5879,1.294 1.37482,0.2426 2.34528,1.2939 1.05133,0.9705 1.29395,2.3453 0.16174,-1.5366 1.29395,-2.5879 1.1322,-1.0513 2.74964,-1.0513 1.61743,0 2.74964,1.0513 1.1322,1.0513 1.29394,2.6688 0.16175,-1.6175 1.29395,-2.6688 1.13221,-1.0513 2.74964,-1.0513 1.69831,0 2.83051,1.213 1.21308,1.1323 1.21308,2.8306 0,-1.6983 1.1322,-2.8306 1.21308,-1.213 2.91138,-1.213 1.69831,0 2.83051,1.213 1.21308,1.1323 1.21308,2.8306 0,1.6983 -1.21308,2.9113 -1.1322,1.1322 -2.83051,1.1322 -1.61743,0 -2.74964,-1.0513 -1.1322,-0.9704 -1.29394,-2.5879 -0.24262,1.6175 -1.29395,2.5879 -1.13221,1.0513 -2.74964,1.0513 -1.61743,0 -2.74964,-1.0513 -1.1322,-0.9704 -1.29395,-2.5879 -0.24261,1.6175 -1.29394,2.5879 -1.13221,1.0513 -2.74964,1.0513 -1.61744,0 -2.74964,-1.0513 -1.13221,-0.9704 -1.29395,-2.5879 -0.24262,1.5366 -1.29395,2.507 -0.97046,0.9705 -2.34528,1.1322 1.53656,0.2427 2.5879,1.294 1.05133,1.1322 1.05133,2.7496 0,1.6983 -1.21308,2.9114 -1.1322,1.1322 -2.83051,1.1322 -1.6983,0 -2.91138,-1.1322 -1.1322,-1.2131 -1.1322,-2.9114 0,-1.6174 1.05133,-2.7496 0.97046,-1.0513 2.58789,-1.294 -1.61743,-0.1617 -2.58789,-1.2939 -1.05133,-1.1322 -1.05133,-2.7496 0,-1.6175 1.05133,-2.7497 0.97046,-1.0513 2.58789,-1.2939 -1.61743,-0.1618 -2.58789,-1.294 -1.05133,-1.1322 -1.05133,-2.7496 0,-1.6175 1.05133,-2.7497 0.97046,-1.0513 2.58789,-1.2939 -1.61743,-0.1617 -2.58789,-1.2939 -1.05133,-1.1323 -1.05133,-2.7497 0,-1.6174 1.05133,-2.7496 0.97046,-1.0514 2.58789,-1.294 -1.61743,-0.1617 -2.58789,-1.2939 -1.05133,-1.1322 -1.05133,-2.7497 z m 32.34869,16.1744 q 0,-1.6175 1.05133,-2.7497 0.97046,-1.0513 2.5879,-1.2939 -1.61744,-0.1617 -2.5879,-1.2939 -1.05133,-1.1323 -1.05133,-2.7497 0,-1.6983 1.1322,-2.8305 1.21308,-1.2131 2.91139,-1.2131 1.6983,0 2.83051,1.2131 1.21307,1.1322 1.21307,2.8305 0,1.6174 -1.05133,2.7497 -1.05133,1.1322 -2.58789,1.2939 1.53656,0.2426 2.58789,1.2939 1.05133,1.1322 1.05133,2.7497 0,1.6983 -1.21307,2.9114 -1.13221,1.1322 -2.83051,1.1322 -1.69831,0 -2.91139,-1.1322 -1.1322,-1.2131 -1.1322,-2.9114 z"
         style="font-style:normal;font-variant:normal;font-weight:normal;font-stretch:normal;font-family:'5by7';-inkscape-font-specification:'5by7'"
         id="path4172" />
      <path
         d="m -671.95455,-1179.2845 q 0,-1.6175 1.05133,-2.7497 0.97046,-1.0513 2.5879,-1.2939 -1.61744,-0.1617 -2.5879,-1.2939 -1.05133,-1.1323 -1.05133,-2.7497 0,-1.6174 1.05133,-2.7496 0.97046,-1.0514 2.5879,-1.294 -1.53657,-0.1617 -2.50703,-1.1322 -0.97046,-0.9704 -1.1322,-2.507 -0.24262,1.6174 -1.29395,2.5879 -1.1322,1.0513 -2.74964,1.0513 -1.61743,0 -2.74964,-1.0513 -1.1322,-0.9705 -1.29395,-2.5879 -0.24261,1.5366 -1.29394,2.507 -0.97046,0.9705 -2.34528,1.1322 1.53656,0.2426 2.58789,1.294 1.05133,1.1322 1.05133,2.7496 0,1.6174 -1.05133,2.7497 -1.05133,1.1322 -2.58789,1.2939 1.53656,0.2426 2.58789,1.2939 1.05133,1.1322 1.05133,2.7497 0,1.6174 -1.05133,2.7496 -1.05133,1.1322 -2.58789,1.294 1.53656,0.2426 2.58789,1.2939 1.05133,1.1322 1.05133,2.7497 0,1.6174 -1.05133,2.7496 -1.05133,1.1322 -2.58789,1.2939 1.53656,0.2427 2.58789,1.294 1.05133,1.1322 1.05133,2.7496 0,1.6983 -1.21307,2.9114 -1.13221,1.1322 -2.83051,1.1322 -1.69831,0 -2.91138,-1.1322 -1.13221,-1.2131 -1.13221,-2.9114 0,-1.6174 1.05133,-2.7496 0.97046,-1.0513 2.5879,-1.294 -1.61744,-0.1617 -2.5879,-1.2939 -1.05133,-1.1322 -1.05133,-2.7496 0,-1.6175 1.05133,-2.7497 0.97046,-1.0513 2.5879,-1.2939 -1.61744,-0.1618 -2.5879,-1.294 -1.05133,-1.1322 -1.05133,-2.7496 0,-1.6175 1.05133,-2.7497 0.97046,-1.0513 2.5879,-1.2939 -1.61744,-0.1617 -2.5879,-1.2939 -1.05133,-1.1323 -1.05133,-2.7497 0,-1.6174 1.05133,-2.7496 0.97046,-1.0514 2.5879,-1.294 -1.61744,-0.1617 -2.5879,-1.2939 -1.05133,-1.1322 -1.05133,-2.7497 0,-1.6983 1.13221,-2.8305 1.21307,-1.213 2.91138,-1.213 1.6983,0 2.83051,1.213 1.05133,1.0514 1.21307,2.5071 0.0809,-1.4557 1.13221,-2.5071 1.21308,-1.213 2.91138,-1.213 1.69831,0 2.83051,1.213 1.05133,1.0514 1.21308,2.5071 0.0809,-1.4557 1.1322,-2.5071 1.21308,-1.213 2.91139,-1.213 1.61743,0 2.74963,1.0513 1.05134,1.0513 1.29395,2.5879 0.16175,-1.5366 1.29395,-2.5879 1.1322,-1.0513 2.74964,-1.0513 1.6983,0 2.83051,1.213 1.21308,1.1322 1.21308,2.8305 0,1.6983 -1.21308,2.9114 -1.13221,1.1322 -2.83051,1.1322 -1.61744,0 -2.74964,-1.0513 -1.1322,-0.9705 -1.29395,-2.5879 -0.24261,1.5366 -1.29395,2.507 -0.97046,0.9705 -2.34528,1.1322 1.53657,0.2426 2.5879,1.294 1.05133,1.1322 1.05133,2.7496 0,1.6174 -1.05133,2.7497 -1.05133,1.1322 -2.5879,1.2939 1.53657,0.2426 2.5879,1.2939 1.05133,1.1322 1.05133,2.7497 0,1.6174 -1.05133,2.7496 -1.05133,1.1322 -2.5879,1.294 1.53657,0.2426 2.5879,1.2939 1.05133,1.1322 1.05133,2.7497 0,1.6174 -1.05133,2.7496 -1.05133,1.1322 -2.5879,1.2939 1.53657,0.2427 2.5879,1.294 1.05133,1.1322 1.05133,2.7496 0,1.6983 -1.21307,2.9114 -1.13221,1.1322 -2.83051,1.1322 -1.69831,0 -2.91139,-1.1322 -1.1322,-1.2131 -1.1322,-2.9114 0,-1.6174 1.05133,-2.7496 0.97046,-1.0513 2.5879,-1.294 -1.61744,-0.1617 -2.5879,-1.2939 -1.05133,-1.1322 -1.05133,-2.7496 0,-1.6175 1.05133,-2.7497 0.97046,-1.0513 2.5879,-1.2939 -1.61744,-0.1618 -2.5879,-1.294 -1.05133,-1.1322 -1.05133,-2.7496 z m 16.17435,0 q 0,-1.6175 1.05133,-2.7497 0.97046,-1.0513 2.58789,-1.2939 -1.61743,-0.1617 -2.58789,-1.2939 -1.05133,-1.1323 -1.05133,-2.7497 0,-1.6983 1.1322,-2.8305 1.21308,-1.2131 2.91138,-1.2131 1.69831,0 2.83051,1.2131 1.21308,1.1322 1.21308,2.8305 0,1.6174 -1.05133,2.7497 -1.05134,1.1322 -2.5879,1.2939 1.53656,0.2426 2.5879,1.2939 1.05133,1.1322 1.05133,2.7497 0,1.6174 -1.05133,2.7496 -1.05134,1.1322 -2.5879,1.294 1.53656,0.2426 2.5879,1.2939 1.05133,1.1322 1.05133,2.7497 0,1.6174 -1.05133,2.7496 -1.05134,1.1322 -2.5879,1.2939 1.53656,0.2427 2.5879,1.294 1.05133,1.1322 1.05133,2.7496 0,1.6983 -1.21308,2.9114 -1.1322,1.1322 -2.83051,1.1322 -1.6983,0 -2.91138,-1.1322 -1.1322,-1.2131 -1.1322,-2.9114 0,-1.6174 1.05133,-2.7496 0.97046,-1.0513 2.58789,-1.294 -1.61743,-0.1617 -2.58789,-1.2939 -1.05133,-1.1322 -1.05133,-2.7496 0,-1.6175 1.05133,-2.7497 0.97046,-1.0513 2.58789,-1.2939 -1.61743,-0.1618 -2.58789,-1.294 -1.05133,-1.1322 -1.05133,-2.7496 z"
         style="font-style:normal;font-variant:normal;font-weight:normal;font-stretch:normal;font-family:'5by7';-inkscape-font-specification:'5by7'"
         id="path4174" />
      <path
         d="m -607.28875,-1187.3717 q 0,-1.6983 1.1322,-2.8305 1.21308,-1.2131 2.91139,-1.2131 1.6983,0 2.83051,1.2131 1.21307,1.1322 1.21307,2.8305 0,1.6174 -1.05133,2.7497 -1.05133,1.1322 -2.58789,1.2939 1.53656,0.2426 2.58789,1.2939 1.05133,1.1322 1.05133,2.7497 0,1.6983 -1.21307,2.9114 -1.13221,1.1322 -2.83051,1.1322 -1.61744,0 -2.74964,-1.0514 -1.13221,-0.9704 -1.29395,-2.5879 -0.24261,1.6175 -1.29395,2.5879 -1.1322,1.0514 -2.74964,1.0514 -1.61743,0 -2.74964,-1.0514 -1.1322,-0.9704 -1.29394,-2.5879 -0.24262,1.6175 -1.29395,2.5879 -1.13221,1.0514 -2.74964,1.0514 -1.61743,0 -2.74964,-1.0514 -1.1322,-0.9704 -1.29395,-2.5879 -0.24261,1.6175 -1.29394,2.5879 -1.13221,1.0514 -2.74964,1.0514 -1.61744,0 -2.74964,-1.0514 -1.13221,-0.9704 -1.29395,-2.5879 -0.24262,1.5366 -1.29395,2.5071 -0.97046,0.9704 -2.34528,1.1322 1.53656,0.2426 2.5879,1.2939 1.05133,1.1322 1.05133,2.7497 0,1.6983 -1.21308,2.9113 -1.1322,1.1322 -2.83051,1.1322 -1.6983,0 -2.91138,-1.1322 -1.1322,-1.213 -1.1322,-2.9113 0,-1.6175 1.05133,-2.7497 0.97046,-1.0513 2.58789,-1.2939 -1.61743,-0.1618 -2.58789,-1.294 -1.05133,-1.1322 -1.05133,-2.7496 0,-1.6175 1.05133,-2.7497 0.97046,-1.0513 2.58789,-1.2939 -1.61743,-0.1617 -2.58789,-1.2939 -1.05133,-1.1323 -1.05133,-2.7497 0,-1.6983 1.1322,-2.8305 1.21308,-1.2131 2.91138,-1.2131 1.69831,0 2.83051,1.2131 1.21308,1.1322 1.21308,2.8305 0,1.6174 -1.05133,2.7497 -1.05134,1.1322 -2.5879,1.2939 1.53656,0.2426 2.5879,1.2939 0.88959,1.0514 1.05133,2.4262 0.0809,-1.4557 1.1322,-2.507 1.21308,-1.2131 2.91139,-1.2131 1.6983,0 2.83051,1.2131 1.21307,1.1322 1.21307,2.8305 0,-1.6983 1.13221,-2.8305 1.21307,-1.2131 2.91138,-1.2131 1.69831,0 2.83051,1.2131 1.21308,1.1322 1.21308,2.8305 0,-1.6983 1.1322,-2.8305 1.21308,-1.2131 2.91138,-1.2131 1.69831,0 2.83051,1.2131 1.05134,1.0513 1.21308,2.507 0.0809,-1.3748 1.05133,-2.4262 0.97046,-1.0513 2.5879,-1.2939 -1.61744,-0.1617 -2.5879,-1.2939 -1.05133,-1.1323 -1.05133,-2.7497 z m -24.26152,-8.0872 q 0,-1.6983 1.1322,-2.8305 1.21308,-1.213 2.91139,-1.213 1.6983,0 2.83051,1.213 1.05133,1.0514 1.21307,2.5071 0.0809,-1.4557 1.13221,-2.5071 1.21307,-1.213 2.91138,-1.213 1.69831,0 2.83051,1.213 1.05133,1.0514 1.21308,2.5071 0.0809,-1.4557 1.1322,-2.5071 1.21308,-1.213 2.91138,-1.213 1.69831,0 2.83051,1.213 1.21308,1.1322 1.21308,2.8305 0,1.6983 -1.21308,2.9114 -1.1322,1.1322 -2.83051,1.1322 -1.61743,0 -2.74964,-1.0513 -1.1322,-0.9705 -1.29394,-2.5879 -0.24262,1.6174 -1.29395,2.5879 -1.13221,1.0513 -2.74964,1.0513 -1.61743,0 -2.74964,-1.0513 -1.1322,-0.9705 -1.29395,-2.5879 -0.24261,1.6174 -1.29394,2.5879 -1.13221,1.0513 -2.74964,1.0513 -1.69831,0 -2.91139,-1.1322 -1.1322,-1.2131 -1.1322,-2.9114 z m 0,32.3487 q 0,-1.6983 1.1322,-2.8305 1.21308,-1.2131 2.91139,-1.2131 1.61743,0 2.74964,1.0514 1.1322,1.0513 1.29394,2.6687 0.16175,-1.6174 1.29395,-2.6687 1.13221,-1.0514 2.74964,-1.0514 1.69831,0 2.83051,1.2131 1.05133,1.0514 1.21308,2.507 0.0809,-1.4556 1.1322,-2.507 1.21308,-1.2131 2.91138,-1.2131 1.69831,0 2.83051,1.2131 1.21308,1.1322 1.21308,2.8305 0,1.6983 -1.21308,2.9114 -1.1322,1.1322 -2.83051,1.1322 -1.61743,0 -2.74964,-1.0513 -1.1322,-0.9705 -1.29394,-2.5879 -0.24262,1.6174 -1.29395,2.5879 -1.13221,1.0513 -2.74964,1.0513 -1.61743,0 -2.74964,-1.0513 -1.1322,-0.9705 -1.29395,-2.5879 -0.24261,1.6174 -1.29394,2.5879 -1.13221,1.0513 -2.74964,1.0513 -1.69831,0 -2.91139,-1.1322 -1.1322,-1.2131 -1.1322,-2.9114 z"
         style="font-style:normal;font-variant:normal;font-weight:normal;font-stretch:normal;font-family:'5by7';-inkscape-font-specification:'5by7'"
         id="path4176" />
      <path
         d="m -591.14605,-1179.2845 q 0,-1.6175 1.05133,-2.7497 0.97046,-1.0513 2.5879,-1.2939 -1.61744,-0.1617 -2.5879,-1.2939 -1.05133,-1.1323 -1.05133,-2.7497 0,-1.6174 1.05133,-2.7496 0.97046,-1.0514 2.5879,-1.294 -1.61744,-0.1617 -2.5879,-1.2939 -1.05133,-1.1322 -1.05133,-2.7497 0,-1.6983 1.1322,-2.8305 1.21308,-1.213 2.91139,-1.213 1.6983,0 2.83051,1.213 1.21307,1.1322 1.21307,2.8305 0,1.6175 -1.05133,2.7497 -1.05133,1.1322 -2.58789,1.2939 1.53656,0.2426 2.58789,1.294 0.88959,1.0513 1.05133,2.4261 0.0809,-1.4557 1.13221,-2.507 1.21307,-1.2131 2.91138,-1.2131 1.69831,0 2.83051,1.2131 1.21308,1.1322 1.21308,2.8305 0,1.6983 -1.21308,2.9114 -1.1322,1.1322 -2.83051,1.1322 -1.61743,0 -2.74964,-1.0513 -1.1322,-0.9705 -1.29395,-2.5879 -0.24261,1.5365 -1.29394,2.507 -0.97046,0.9705 -2.34528,1.1322 1.53656,0.2426 2.58789,1.2939 1.05133,1.1322 1.05133,2.7497 0,1.6174 -1.05133,2.7496 -1.05133,1.1322 -2.58789,1.294 1.53656,0.2426 2.58789,1.2939 1.05133,1.1322 1.05133,2.7497 0,1.6174 -1.05133,2.7496 -1.05133,1.1322 -2.58789,1.2939 1.53656,0.2427 2.58789,1.294 1.05133,1.1322 1.05133,2.7496 0,1.6983 -1.21307,2.9114 -1.13221,1.1322 -2.83051,1.1322 -1.69831,0 -2.91139,-1.1322 -1.1322,-1.2131 -1.1322,-2.9114 0,-1.6174 1.05133,-2.7496 0.97046,-1.0513 2.5879,-1.294 -1.61744,-0.1617 -2.5879,-1.2939 -1.05133,-1.1322 -1.05133,-2.7496 0,-1.6175 1.05133,-2.7497 0.97046,-1.0513 2.5879,-1.2939 -1.61744,-0.1618 -2.5879,-1.294 -1.05133,-1.1322 -1.05133,-2.7496 z m 32.34869,0 q 0,-1.6175 1.05134,-2.7497 0.97046,-1.0513 2.58789,-1.2939 -1.61743,-0.1617 -2.58789,-1.2939 -1.05134,-1.1323 -1.05134,-2.7497 0,-1.6983 1.13221,-2.8305 1.21307,-1.2131 2.91138,-1.2131 1.69831,0 2.83051,1.2131 1.21308,1.1322 1.21308,2.8305 0,1.6174 -1.05133,2.7497 -1.05134,1.1322 -2.5879,1.2939 1.53656,0.2426 2.5879,1.2939 1.05133,1.1322 1.05133,2.7497 0,1.6174 -1.05133,2.7496 -1.05134,1.1322 -2.5879,1.294 1.53656,0.2426 2.5879,1.2939 1.05133,1.1322 1.05133,2.7497 0,1.6174 -1.05133,2.7496 -1.05134,1.1322 -2.5879,1.2939 1.53656,0.2427 2.5879,1.294 1.05133,1.1322 1.05133,2.7496 0,1.6983 -1.21308,2.9114 -1.1322,1.1322 -2.83051,1.1322 -1.69831,0 -2.91138,-1.1322 -1.13221,-1.2131 -1.13221,-2.9114 0,-1.6174 1.05134,-2.7496 0.97046,-1.0513 2.58789,-1.294 -1.61743,-0.1617 -2.58789,-1.2939 -1.05134,-1.1322 -1.05134,-2.7496 0,-1.6175 1.05134,-2.7497 0.97046,-1.0513 2.58789,-1.2939 -1.61743,-0.1618 -2.58789,-1.294 -1.05134,-1.1322 -1.05134,-2.7496 z m -16.17434,-16.1744 q 0,-1.6983 1.1322,-2.8305 1.21308,-1.213 2.91138,-1.213 1.69831,0 2.83051,1.213 1.05134,1.0514 1.21308,2.5071 0.0809,-1.4557 1.13221,-2.5071 1.21307,-1.213 2.91138,-1.213 1.6983,0 2.83051,1.213 1.21307,1.1322 1.21307,2.8305 0,1.6983 -1.21307,2.9114 -1.13221,1.1322 -2.83051,1.1322 -1.61744,0 -2.74964,-1.0513 -1.13221,-0.9705 -1.29395,-2.5879 -0.24261,1.6174 -1.29395,2.5879 -1.1322,1.0513 -2.74964,1.0513 -1.6983,0 -2.91138,-1.1322 -1.1322,-1.2131 -1.1322,-2.9114 z"
         style="font-style:normal;font-variant:normal;font-weight:normal;font-stretch:normal;font-family:'5by7';-inkscape-font-specification:'5by7'"
         id="path4178" />
      <path
         d="m -534.56742,-1203.546 q 0,-1.6983 1.1322,-2.8305 1.21308,-1.2131 2.91139,-1.2131 1.6983,0 2.83051,1.2131 1.21307,1.1322 1.21307,2.8305 0,1.6174 -1.05133,2.7496 -1.05133,1.1322 -2.5879,1.294 1.53657,0.2426 2.5879,1.2939 0.88959,1.0513 1.05133,2.4262 0.0809,-1.4557 1.13221,-2.5071 1.21307,-1.213 2.91138,-1.213 1.69831,0 2.83051,1.213 1.21308,1.1322 1.21308,2.8305 0,1.6983 -1.21308,2.9114 -1.1322,1.1322 -2.83051,1.1322 -1.61744,0 -2.74964,-1.0513 -1.1322,-0.9705 -1.29395,-2.5879 -0.24261,1.5366 -1.29395,2.507 -0.97046,0.9705 -2.34528,1.1322 1.53657,0.2426 2.5879,1.294 1.05133,1.1322 1.05133,2.7496 0,1.6174 -1.05133,2.7497 -1.05133,1.1322 -2.5879,1.2939 1.53657,0.2426 2.5879,1.2939 1.05133,1.1322 1.05133,2.7497 0,1.6174 -1.05133,2.7496 -1.05133,1.1322 -2.5879,1.294 1.53657,0.2426 2.5879,1.2939 1.05133,1.1322 1.05133,2.7497 0,1.6983 -1.21307,2.9113 -1.13221,1.1322 -2.83051,1.1322 -1.69831,0 -2.91139,-1.1322 -1.1322,-1.213 -1.1322,-2.9113 0,-1.6175 1.05133,-2.7497 0.97046,-1.0513 2.5879,-1.2939 -1.61744,-0.1618 -2.5879,-1.294 -1.05133,-1.1322 -1.05133,-2.7496 0,-1.6175 1.05133,-2.7497 0.97046,-1.0513 2.5879,-1.2939 -1.61744,-0.1617 -2.5879,-1.2939 -1.05133,-1.1323 -1.05133,-2.7497 0,-1.6174 1.05133,-2.7496 0.97046,-1.0514 2.5879,-1.294 -1.53657,-0.1617 -2.50703,-1.1322 -0.97046,-0.9704 -1.1322,-2.507 -0.24262,1.6174 -1.29395,2.5879 -1.1322,1.0513 -2.74964,1.0513 -1.6983,0 -2.91138,-1.1322 -1.1322,-1.2131 -1.1322,-2.9114 0,-1.6983 1.1322,-2.8305 1.21308,-1.213 2.91138,-1.213 1.69831,0 2.83051,1.213 1.05134,1.0514 1.21308,2.5071 0.0809,-1.3749 1.05133,-2.4262 0.97046,-1.0513 2.5879,-1.2939 -1.61744,-0.1618 -2.5879,-1.294 -1.05133,-1.1322 -1.05133,-2.7496 z m 8.08717,40.4358 q 0,-1.6983 1.13221,-2.8305 1.21307,-1.2131 2.91138,-1.2131 1.69831,0 2.83051,1.2131 1.21308,1.1322 1.21308,2.8305 0,-1.6983 1.1322,-2.8305 1.21308,-1.2131 2.91138,-1.2131 1.69831,0 2.83051,1.2131 1.21308,1.1322 1.21308,2.8305 0,1.6983 -1.21308,2.9114 -1.1322,1.1322 -2.83051,1.1322 -1.61743,0 -2.74964,-1.0513 -1.1322,-0.9705 -1.29394,-2.5879 -0.24262,1.6174 -1.29395,2.5879 -1.13221,1.0513 -2.74964,1.0513 -1.69831,0 -2.91138,-1.1322 -1.13221,-1.2131 -1.13221,-2.9114 z m 16.17435,-8.0871 q 0,-1.6983 1.1322,-2.8306 1.21308,-1.213 2.91139,-1.213 1.6983,0 2.83051,1.213 1.21307,1.1323 1.21307,2.8306 0,1.6983 -1.21307,2.9113 -1.13221,1.1322 -2.83051,1.1322 -1.69831,0 -2.91139,-1.1322 -1.1322,-1.213 -1.1322,-2.9113 z"
         style="font-style:normal;font-variant:normal;font-weight:normal;font-stretch:normal;font-family:'5by7';-inkscape-font-specification:'5by7'"
         id="path4180" />
    </g>
  </g>
</svg>
