<?xml version="1.0" encoding="UTF-8" standalone="no"?>
<!-- Created with Inkscape (http://www.inkscape.org/) -->

<svg
   xmlns:dc="http://purl.org/dc/elements/1.1/"
   xmlns:cc="http://creativecommons.org/ns#"
   xmlns:rdf="http://www.w3.org/1999/02/22-rdf-syntax-ns#"
   xmlns:svg="http://www.w3.org/2000/svg"
   xmlns="http://www.w3.org/2000/svg"
   xmlns:sodipodi="http://sodipodi.sourceforge.net/DTD/sodipodi-0.dtd"
   xmlns:inkscape="http://www.inkscape.org/namespaces/inkscape"
   width="210mm"
   height="297mm"
   viewBox="0 0 744.09448819 1052.3622047"
   id="svg2"
   version="1.1"
   inkscape:version="0.91 r13725"
   sodipodi:docname="icon.svg">
  <defs
     id="defs4" />
  <sodipodi:namedview
     id="base"
     pagecolor="#ffffff"
     bordercolor="#666666"
     borderopacity="1.0"
     inkscape:pageopacity="0.0"
     inkscape:pageshadow="2"
     inkscape:zoom="0.49497475"
     inkscape:cx="-1103.8786"
     inkscape:cy="2516.8356"
     inkscape:document-units="px"
     inkscape:current-layer="layer1"
     showgrid="false"
     inkscape:snap-global="true"
     inkscape:window-width="1855"
     inkscape:window-height="1056"
     inkscape:window-x="65"
     inkscape:window-y="24"
     inkscape:window-maximized="1"
     inkscape:snap-bbox="true"
     inkscape:bbox-nodes="false"
     inkscape:snap-smooth-nodes="true"
     inkscape:object-nodes="true"
     inkscape:snap-nodes="false" />
  <metadata
     id="metadata7">
    <rdf:RDF>
      <cc:Work
         rdf:about="">
        <dc:format>image/svg+xml</dc:format>
        <dc:type
           rdf:resource="http://purl.org/dc/dcmitype/StillImage" />
        <dc:title />
      </cc:Work>
    </rdf:RDF>
  </metadata>
  <g
     inkscape:label="Calque 1"
     inkscape:groupmode="layer"
     id="layer1">
    <rect
       style="fill:#ffffff;fill-opacity:1;stroke:none;stroke-width:1;stroke-miterlimit:4;stroke-dasharray:none;stroke-opacity:1"
       id="rect4195"
       width="1331.3538"
       height="329.79337"
       x="-1757.068"
       y="-1437.431"
       ry="0"
       inkscape:export-filename="/home/florian/Documents/Design/letter_logo.jpg"
       inkscape:export-xdpi="54.579617"
       inkscape:export-ydpi="54.579617" />
    <rect
       style="fill:#000000;fill-opacity:1;stroke:none"
       id="rect4153"
       width="282.84271"
       height="282.84271"
       x="1218.244"
       y="316.97116"
       ry="0"
       inkscape:export-xdpi="5.3296485"
       inkscape:export-ydpi="5.3296485" />
    <path
       style="fill:#000000;fill-opacity:1;fill-rule:evenodd;stroke:none;stroke-width:1px;stroke-linecap:butt;stroke-linejoin:miter;stroke-opacity:1"
       d="m 443.58726,1266.498 c -8.1241,-7.0896 -56.8424,39.6305 -59.0939,89.9036 -2.2516,50.2731 27.7792,107.0762 67.6802,127.2792 11.5587,5.8526 23.7197,10.7735 36.1241,12.7254 7.259,1.1422 -0.33732,5.5294 -1.56834,10.1019 -1.31214,4.8738 -1.66807,7.9654 6.86474,9.1294 5.06088,0.6904 46.4476,0.5189 58.469,0.5943 12.29646,0.077 12.62395,-5.1634 8.79167,-11.1421 -3.49118,-5.4466 -15.51549,-7.6871 -13.51357,-7.8278 8.03649,-0.5648 14.64309,-1.4729 20.91327,-2.3722 56.4241,-8.093 51.02282,-56.5527 41.15628,-85.3684 -11.70719,-34.1913 -33.88465,-37.9038 -37.95255,-46.2537 -8.7963,-18.0559 -24.6378,-14.3675 -24.3303,-17.9777 0.4942,-5.8004 1.0412,5.386 36.36546,-7.5761 35.3243,-12.9622 10.6287,-62.841 3.75,-57.7573 -6.8787,5.0838 -8.1088,-2.3819 -26.86086,1.9844 -18.7521,4.3664 -3.3681,-3.2642 -22.6567,-14.662 -19.2886,-11.3979 -14.5232,-19.8123 -26.584,-18.3231 -8.9606,1.1065 -13.414,14.8046 -18.6624,18.8107 -3.2745,2.4994 -19.5304,-3.2169 -24.7321,6.4648 -4.6638,8.6806 1.1662,22.3989 0.7738,26.9661 -0.6879,8.0057 -9.8024,9.8659 -7.7612,18.8387 2.3351,10.2649 27.2269,10.2266 18.1827,41.9214 -9.0441,31.6947 -31.3804,39.1206 -52.5279,3.5355 -21.1475,-35.5851 25.2967,-91.9054 17.1726,-98.995 z"
       id="path4149-7"
       inkscape:connector-curvature="0"
       sodipodi:nodetypes="zzssssssssssszzzzssssszzz"
       inkscape:export-xdpi="5.3296485"
       inkscape:export-ydpi="5.3296485" />
    <path
       style="fill:#ffffff;fill-opacity:1;fill-rule:evenodd;stroke:none;stroke-width:1px;stroke-linecap:butt;stroke-linejoin:miter;stroke-opacity:1"
       d="m 1302.7064,342.92292 c -8.1241,-7.0896 -56.8424,39.6305 -59.0939,89.9036 -2.2516,50.2731 27.7792,107.0762 67.6802,127.2792 11.5587,5.8526 23.7197,10.7735 36.1241,12.7254 7.259,1.1422 -0.3373,5.5294 -1.5683,10.1019 -1.3121,4.8738 -1.6681,7.9654 6.8647,9.1294 5.0609,0.6904 46.4476,0.5189 58.469,0.5943 12.2965,0.077 12.624,-5.1634 8.7917,-11.1421 -3.4912,-5.4466 -15.5155,-7.6871 -13.5136,-7.8278 8.0365,-0.5648 14.6431,-1.4729 20.9133,-2.3722 56.4241,-8.093 51.0228,-56.5527 41.1563,-85.3684 -11.7072,-34.1913 -33.8847,-37.9038 -37.9526,-46.2537 -8.7963,-18.0559 -24.6378,-14.3675 -24.3303,-17.9777 0.4942,-5.8004 1.0412,5.386 36.3655,-7.5761 35.3243,-12.9622 10.6287,-62.841 3.75,-57.7573 -6.8787,5.0838 -8.1088,-2.3819 -26.8609,1.9844 -18.7521,4.3664 -3.3681,-3.2642 -22.6567,-14.662 -19.2886,-11.3979 -14.5232,-19.8123 -26.584,-18.3231 -8.9606,1.1065 -13.414,14.8046 -18.6624,18.8107 -3.2745,2.4994 -19.5304,-3.2169 -24.7321,6.4648 -4.6638,8.6806 1.1662,22.3989 0.7738,26.9661 -0.6879,8.0057 -9.8024,9.8659 -7.7612,18.8387 2.3351,10.2649 27.2269,10.2266 18.1827,41.9214 -9.0441,31.6947 -31.3804,39.1206 -52.5279,3.5355 -21.1475,-35.5851 25.2967,-91.9054 17.1726,-98.995 z"
       id="path4149-7-5"
       inkscape:connector-curvature="0"
       sodipodi:nodetypes="zzssssssssssszzzzssssszzz"
       inkscape:export-xdpi="5.3296485"
       inkscape:export-ydpi="5.3296485" />
    <rect
       style="fill:#000000;fill-opacity:1;stroke:none"
       id="rect4153-3"
       width="282.84271"
       height="282.84271"
       x="1530.0072"
       y="813.79797"
       ry="0"
       inkscape:export-xdpi="5.3296485"
       inkscape:export-ydpi="5.3296485" />
    <path
       style="fill:#007e00;fill-opacity:1;fill-rule:evenodd;stroke:none;stroke-width:1px;stroke-linecap:butt;stroke-linejoin:miter;stroke-opacity:1"
       d="m 1614.4696,839.74975 c -8.1241,-7.0896 -56.8424,39.6305 -59.0939,89.9036 -2.2516,50.2731 27.7792,107.07625 67.6802,127.27925 11.5587,5.8526 23.7197,10.7735 36.1241,12.7254 7.259,1.1422 -0.3373,5.5294 -1.5683,10.1019 -1.3121,4.8738 -1.6681,7.9654 6.8647,9.1294 5.0609,0.6904 46.4476,0.5189 58.469,0.5943 12.2965,0.077 12.624,-5.1634 8.7917,-11.1421 -3.4912,-5.4466 -15.5155,-7.6871 -13.5136,-7.8278 8.0365,-0.5648 14.6431,-1.4729 20.9133,-2.3722 56.4241,-8.093 51.0228,-56.5527 41.1563,-85.36845 -11.7072,-34.1913 -33.8847,-37.9038 -37.9526,-46.2537 -8.7963,-18.0559 -24.6378,-14.3675 -24.3303,-17.9777 0.4942,-5.8004 1.0412,5.386 36.3655,-7.5761 35.3243,-12.9622 10.6287,-62.841 3.75,-57.7573 -6.8787,5.0838 -8.1088,-2.3819 -26.8609,1.9844 -18.7521,4.3664 -3.3681,-3.2642 -22.6567,-14.662 -19.2886,-11.3979 -14.5232,-19.8123 -26.584,-18.3231 -8.9606,1.1065 -13.414,14.8046 -18.6624,18.8107 -3.2745,2.4994 -19.5304,-3.2169 -24.7321,6.4648 -4.6638,8.6806 1.1662,22.3989 0.7738,26.9661 -0.6879,8.0057 -9.8024,9.8659 -7.7612,18.8387 2.3351,10.2649 27.2269,10.2266 18.1827,41.9214 -9.0441,31.6947 -31.3804,39.1206 -52.5279,3.5355 -21.1475,-35.5851 25.2967,-91.9054 17.1726,-98.995 z"
       id="path4149-7-5-5"
       inkscape:connector-curvature="0"
       sodipodi:nodetypes="zzssssssssssszzzzssssszzz"
       inkscape:export-xdpi="5.3296485"
       inkscape:export-ydpi="5.3296485" />
    <path
       style="fill:#007f00;fill-opacity:1;fill-rule:evenodd;stroke:none;stroke-width:1px;stroke-linecap:butt;stroke-linejoin:miter;stroke-opacity:1"
       d="m 1029.2778,1302.0658 c -8.1241,-7.0896 -56.84235,39.6305 -59.09385,89.9036 -2.2516,50.2731 27.7792,107.0762 67.68015,127.2792 11.5587,5.8526 23.7197,10.7735 36.1241,12.7254 7.259,1.1422 -0.3373,5.5294 -1.5683,10.1019 -1.3121,4.8738 -1.6681,7.9654 6.8647,9.1294 5.0609,0.6904 46.4476,0.5189 58.469,0.5943 12.2965,0.077 12.624,-5.1634 8.7917,-11.1421 -3.4912,-5.4466 -15.5155,-7.6871 -13.5136,-7.8278 8.0365,-0.5648 14.6431,-1.4729 20.9133,-2.3722 56.4241,-8.093 51.0228,-56.5527 41.1563,-85.3684 -11.7072,-34.1913 -33.8847,-37.9038 -37.9526,-46.2537 -8.7963,-18.0559 -24.6378,-14.3675 -24.3303,-17.9777 0.4942,-5.8004 1.0412,5.386 36.3655,-7.5761 35.3243,-12.9622 10.6287,-62.841 3.75,-57.7573 -6.8787,5.0838 -8.1088,-2.3819 -26.8609,1.9844 -18.7521,4.3664 -3.3681,-3.2642 -22.6567,-14.662 -19.2886,-11.3979 -14.5232,-19.8123 -26.584,-18.3231 -8.9606,1.1065 -13.414,14.8046 -18.6624,18.8107 -3.2745,2.4994 -19.5304,-3.2169 -24.7321,6.4648 -4.6638,8.6806 1.1662,22.3989 0.7738,26.9661 -0.6879,8.0057 -9.8024,9.8659 -7.7612,18.8387 2.3351,10.2649 27.2269,10.2266 18.1827,41.9214 -9.0441,31.6947 -31.3804,39.1206 -52.5279,3.5355 -21.14745,-35.5851 25.2967,-91.9054 17.1726,-98.995 z"
       id="path4149-7-6"
       inkscape:connector-curvature="0"
       sodipodi:nodetypes="zzssssssssssszzzzssssszzz"
       inkscape:export-xdpi="5.3296485"
       inkscape:export-ydpi="5.3296485" />
    <rect
       style="fill:#000000;fill-opacity:1;stroke:none"
       id="rect4153-36"
       width="217.12843"
       height="217.12843"
       x="-675.70703"
       y="1518.0837"
       ry="51.180271"
       inkscape:export-xdpi="5.3296485"
       inkscape:export-ydpi="5.3296485" />
    <path
       style="fill:#ffffff;fill-opacity:1;fill-rule:evenodd;stroke:none;stroke-width:1px;stroke-linecap:butt;stroke-linejoin:miter;stroke-opacity:1"
       d="m -610.86825,1538.0059 c -6.23659,-5.4424 -43.63592,30.423 -45.36432,69.0159 -1.72847,38.5929 21.32512,82.1986 51.95572,97.7077 8.87321,4.4929 18.20878,8.2705 27.73119,9.7689 5.57248,0.8768 -0.25893,4.2447 -1.20392,7.7549 -1.00726,3.7414 -1.28055,6.1147 5.26979,7.0083 3.88507,0.53 35.65619,0.3983 44.8846,0.4562 9.43959,0.059 9.691,-3.9638 6.74907,-8.5534 -2.68007,-4.1812 -11.9107,-5.9011 -10.37391,-6.0091 6.16934,-0.4336 11.24099,-1.1307 16.0544,-1.8211 43.31481,-6.2127 39.16842,-43.4135 31.59425,-65.5343 -8.9872,-26.2475 -26.01209,-29.0974 -29.13488,-35.5074 -6.75261,-13.8608 -18.91357,-11.0294 -18.67751,-13.8008 0.37938,-4.4528 0.79929,4.1346 27.91651,-5.8159 27.11723,-9.9506 8.15928,-48.2408 2.87875,-44.3383 -5.28054,3.9027 -6.22484,-1.8285 -20.62017,1.5234 -14.39533,3.3519 -2.58558,-2.5058 -17.39276,-11.2555 -14.80718,-8.7498 -11.14895,-15.2092 -20.4076,-14.066 -6.87874,0.8494 -10.29746,11.365 -14.32647,14.4403 -2.51372,1.9187 -14.9928,-2.4695 -18.98596,4.9628 -3.58023,6.6638 0.89525,17.1949 0.59402,20.7009 -0.52808,6.1457 -7.52496,7.5737 -5.958,14.4618 1.79257,7.88 20.90113,7.8506 13.95821,32.1816 -6.94283,24.3309 -24.08962,30.0315 -40.32382,2.7141 -16.23419,-27.3174 19.41939,-70.5525 13.18281,-75.995 z"
       id="path4149-7-5-7"
       inkscape:connector-curvature="0"
       sodipodi:nodetypes="zzssssssssssszzzzssssszzz"
       inkscape:export-xdpi="5.3296485"
       inkscape:export-ydpi="5.3296485" />
    <flowRoot
       xml:space="preserve"
       id="flowRoot4157"
       style="font-style:normal;font-weight:normal;font-size:59.8922348px;line-height:125%;font-family:sans-serif;letter-spacing:0px;word-spacing:0px;fill:#000000;fill-opacity:1;stroke:none;stroke-width:1px;stroke-linecap:butt;stroke-linejoin:miter;stroke-opacity:1"
       transform="matrix(4.9082974,0,0,4.9082974,631.1424,-7331.814)"><flowRegion
         id="flowRegion4159"><rect
           id="rect4161"
           width="424.2583"
           height="127.05061"
           x="-220.70239"
           y="1771.2567" /></flowRegion><flowPara
         id="flowPara4163"
         style="font-style:normal;font-variant:normal;font-weight:normal;font-stretch:normal;font-family:'5by7';-inkscape-font-specification:'5by7'">SOFTOZOR</flowPara></flowRoot>    <rect
       style="fill:#000000;fill-opacity:1;stroke:none"
       id="rect4153-36-0"
       width="259.98557"
       height="259.98557"
       x="-1719.9252"
       y="-1388.8596"
       ry="61.28231"
       inkscape:export-xdpi="5.3296485"
       inkscape:export-ydpi="5.3296485" />
    <path
       style="fill:#ffffff;fill-opacity:1;fill-rule:evenodd;stroke:none;stroke-width:1px;stroke-linecap:butt;stroke-linejoin:miter;stroke-opacity:1"
       d="m -1633.6578,-1347.5089 c -6.2366,-5.4424 -43.6359,30.423 -45.3643,69.0159 -1.7285,38.5929 21.3251,82.1986 51.9557,97.7077 8.8732,4.4929 18.2088,8.2705 27.7312,9.7689 5.5725,0.8768 -0.2589,4.2447 -1.2039,7.7549 -1.0073,3.7414 -1.2806,6.1147 5.2698,7.0083 3.885,0.53 35.6562,0.3983 44.8846,0.4562 9.4396,0.059 9.691,-3.9638 6.749,-8.5534 -2.68,-4.1812 -11.9107,-5.9011 -10.3739,-6.0091 6.1694,-0.4336 11.241,-1.1307 16.0544,-1.8211 43.3148,-6.2127 39.1684,-43.4135 31.5943,-65.5343 -8.9872,-26.2475 -26.0121,-29.0974 -29.1349,-35.5074 -6.7526,-13.8608 -18.9136,-11.0294 -18.6775,-13.8008 0.3794,-4.4528 0.7993,4.1346 27.9165,-5.8159 27.1172,-9.9506 8.1593,-48.2408 2.8787,-44.3383 -5.2805,3.9027 -6.2248,-1.8285 -20.6201,1.5234 -14.3954,3.3519 -2.5856,-2.5058 -17.3928,-11.2555 -14.8072,-8.7498 -11.1489,-15.2092 -20.4076,-14.066 -6.8787,0.8494 -10.2974,11.365 -14.3265,14.4403 -2.5137,1.9187 -14.9928,-2.4695 -18.9859,4.9628 -3.5802,6.6638 0.8952,17.1949 0.594,20.7009 -0.5281,6.1457 -7.525,7.5737 -5.958,14.4618 1.7926,7.88 20.9011,7.8506 13.9582,32.1816 -6.9428,24.3309 -24.0896,30.0315 -40.3238,2.7141 -16.2342,-27.3174 19.4194,-70.5525 13.1828,-75.995 z"
       id="path4149-7-5-7-4"
       inkscape:connector-curvature="0"
       sodipodi:nodetypes="zzssssssssssszzzzssssszzz"
       inkscape:export-xdpi="5.3296485"
       inkscape:export-ydpi="5.3296485" />
    <flowRoot
       xml:space="preserve"
       id="flowRoot4157-2"
       style="font-style:normal;font-weight:normal;font-size:293.96890259px;line-height:125%;font-family:sans-serif;letter-spacing:0px;word-spacing:0px;fill:#000000;fill-opacity:1;stroke:none;stroke-width:1px;stroke-linecap:butt;stroke-linejoin:miter;stroke-opacity:1"
       transform="matrix(0.66677025,0,0,0.66677025,-1583.3821,-1365.5516)"><flowRegion
         id="flowRegion4159-2"><rect
           id="rect4161-2"
           width="2082.386"
           height="623.60217"
           x="223.57642"
           y="-156.04298" /></flowRegion><flowPara
         id="flowPara4163-0"
         style="font-style:normal;font-variant:normal;font-weight:normal;font-stretch:normal;font-family:'5by7';-inkscape-font-specification:'5by7'">SOFTOZOR</flowPara></flowRoot>    <flowRoot
       xml:space="preserve"
       id="flowRoot4197"
       style="font-style:normal;font-weight:normal;font-size:80.87173462px;line-height:125%;font-family:sans-serif;letter-spacing:0px;word-spacing:0px;fill:#000000;fill-opacity:1;stroke:none;stroke-width:1px;stroke-linecap:butt;stroke-linejoin:miter;stroke-opacity:1"
       transform="translate(-1.4285714,-2.8571431)"><flowRegion
         id="flowRegion4199"><rect
           id="rect4201"
           width="1834.0555"
           height="207.95589"
           x="-1427.7572"
           y="-1260.1561" /></flowRegion><flowPara
         id="flowPara4203"
         style="font-style:normal;font-variant:normal;font-weight:normal;font-stretch:normal;font-family:'5by7';-inkscape-font-specification:'5by7'">software development</flowPara></flowRoot>    <path
       style="fill:#000000;fill-opacity:1;stroke:none"
       d="M -2167.1406 -1950.5039 C -2201.091 -1950.5039 -2228.4238 -1923.1731 -2228.4238 -1889.2227 L -2228.4238 -1751.8008 C -2228.4238 -1717.8504 -2201.091 -1690.5195 -2167.1406 -1690.5195 L -2029.7207 -1690.5195 C -1995.7703 -1690.5195 -1968.4375 -1717.8504 -1968.4375 -1751.8008 L -1968.4375 -1889.2227 C -1968.4375 -1923.1731 -1995.7703 -1950.5039 -2029.7207 -1950.5039 L -2167.1406 -1950.5039 z M -2088.7051 -1922.7461 C -2081.4238 -1922.9464 -2083.7704 -1916.7576 -2069.8887 -1908.5547 C -2055.0815 -1899.805 -2066.8915 -1893.9469 -2052.4961 -1897.2988 C -2038.1008 -1900.6507 -2037.1575 -1894.9196 -2031.877 -1898.8223 C -2026.5964 -1902.7248 -2007.6387 -1864.435 -2034.7559 -1854.4844 C -2061.8731 -1844.5339 -2062.2925 -1853.1208 -2062.6719 -1848.668 C -2062.908 -1845.8966 -2050.7467 -1848.728 -2043.9941 -1834.8672 C -2040.8713 -1828.4572 -2023.8466 -1825.6069 -2014.8594 -1799.3594 C -2007.2853 -1777.2386 -2003.1383 -1740.0389 -2046.4531 -1733.8262 C -2051.2665 -1733.1358 -2056.3384 -1732.4375 -2062.5078 -1732.0039 C -2064.0446 -1731.8959 -2054.8148 -1730.1773 -2052.1348 -1725.9961 C -2049.1928 -1721.4065 -2049.4432 -1717.3824 -2058.8828 -1717.4414 C -2068.1112 -1717.4993 -2099.8826 -1717.3684 -2103.7676 -1717.8984 C -2110.318 -1718.792 -2110.0444 -1721.1648 -2109.0371 -1724.9062 C -2108.0921 -1728.4164 -2102.2615 -1731.7853 -2107.834 -1732.6621 C -2117.3564 -1734.1605 -2126.6913 -1737.9368 -2135.5645 -1742.4297 C -2166.1951 -1757.9388 -2189.248 -1801.5458 -2187.5195 -1840.1387 C -2185.7911 -1878.7316 -2148.3929 -1914.5967 -2142.1562 -1909.1543 C -2135.9197 -1903.7118 -2171.574 -1860.4756 -2155.3398 -1833.1582 C -2139.1056 -1805.8408 -2121.9584 -1811.5421 -2115.0156 -1835.873 C -2108.0727 -1860.204 -2127.1801 -1860.1747 -2128.9727 -1868.0547 C -2130.5397 -1874.9428 -2123.5437 -1876.3699 -2123.0156 -1882.5156 C -2122.7144 -1886.0216 -2127.1896 -1896.553 -2123.6094 -1903.2168 C -2119.6163 -1910.6491 -2107.1367 -1906.261 -2104.623 -1908.1797 C -2100.5939 -1911.255 -2097.1756 -1921.7717 -2090.2969 -1922.6211 C -2089.7182 -1922.6925 -2089.1905 -1922.7327 -2088.7051 -1922.7461 z "
       id="rect4153-36-0-3"
       inkscape:export-xdpi="74"
       inkscape:export-ydpi="74" />
    <flowRoot
       xml:space="preserve"
       id="flowRoot4157-2-7"
       style="font-style:normal;font-weight:normal;font-size:196.00971985px;line-height:125%;font-family:sans-serif;letter-spacing:0px;word-spacing:0px;fill:#000000;fill-opacity:1;stroke:none;stroke-width:1px;stroke-linecap:butt;stroke-linejoin:miter;stroke-opacity:1"
       transform="translate(-2228.4236,-1950.5044)"
       inkscape:export-xdpi="74"
       inkscape:export-ydpi="74"><flowRegion
         id="flowRegion4159-2-5"><rect
           id="rect4161-2-3"
           width="1388.473"
           height="415.79938"
           x="285.61719"
           y="-80.736801" /></flowRegion><flowPara
         id="flowPara4163-0-5"
         style="font-style:normal;font-variant:normal;font-weight:normal;font-stretch:normal;font-family:'5by7';-inkscape-font-specification:'5by7'">SOFTOZOR</flowPara></flowRoot>    <flowRoot
       xml:space="preserve"
       id="flowRoot4197-6"
       style="font-style:normal;font-weight:normal;font-size:80.87173462px;line-height:125%;font-family:sans-serif;letter-spacing:0px;word-spacing:0px;fill:#000000;fill-opacity:1;stroke:none;stroke-width:1px;stroke-linecap:butt;stroke-linejoin:miter;stroke-opacity:1"
       transform="translate(-509.92702,-564.50192)"
       inkscape:export-xdpi="74"
       inkscape:export-ydpi="74"><flowRegion
         id="flowRegion4199-2"><rect
           id="rect4201-9"
           width="1834.0555"
           height="207.95589"
           x="-1427.7572"
           y="-1260.1561" /></flowRegion><flowPara
         id="flowPara4203-1"
         style="font-style:normal;font-variant:normal;font-weight:normal;font-stretch:normal;font-family:'5by7';-inkscape-font-specification:'5by7'">software development</flowPara></flowRoot>  </g>
</svg>
