<?xml version="1.0" encoding="UTF-8" standalone="no"?>
<!-- Created with Inkscape (http://www.inkscape.org/) -->

<svg
   xmlns:dc="http://purl.org/dc/elements/1.1/"
   xmlns:cc="http://creativecommons.org/ns#"
   xmlns:rdf="http://www.w3.org/1999/02/22-rdf-syntax-ns#"
   xmlns:svg="http://www.w3.org/2000/svg"
   xmlns="http://www.w3.org/2000/svg"
   xmlns:sodipodi="http://sodipodi.sourceforge.net/DTD/sodipodi-0.dtd"
   xmlns:inkscape="http://www.inkscape.org/namespaces/inkscape"
   width="210mm"
   height="297mm"
   viewBox="0 0 744.09448819 1052.3622047"
   id="svg2"
   version="1.1"
   inkscape:version="0.91 r13725"
   sodipodi:docname="icon.svg">
  <defs
     id="defs4" />
  <sodipodi:namedview
     id="base"
     pagecolor="#ffffff"
     bordercolor="#666666"
     borderopacity="1.0"
     inkscape:pageopacity="0.0"
     inkscape:pageshadow="2"
     inkscape:zoom="0.35"
     inkscape:cx="525.79208"
     inkscape:cy="-412.99745"
     inkscape:document-units="px"
     inkscape:current-layer="layer1"
     showgrid="false"
     inkscape:snap-global="false"
     inkscape:window-width="1855"
     inkscape:window-height="1056"
     inkscape:window-x="65"
     inkscape:window-y="24"
     inkscape:window-maximized="1" />
  <metadata
     id="metadata7">
    <rdf:RDF>
      <cc:Work
         rdf:about="">
        <dc:format>image/svg+xml</dc:format>
        <dc:type
           rdf:resource="http://purl.org/dc/dcmitype/StillImage" />
        <dc:title></dc:title>
      </cc:Work>
    </rdf:RDF>
  </metadata>
  <g
     inkscape:label="Calque 1"
     inkscape:groupmode="layer"
     id="layer1">
    <rect
       style="fill:#000000;fill-opacity:1;stroke:none"
       id="rect4153"
       width="282.84271"
       height="282.84271"
       x="1218.244"
       y="316.97116"
       ry="0"
       inkscape:export-xdpi="5.3296485"
       inkscape:export-ydpi="5.3296485" />
    <path
       style="fill:#000000;fill-opacity:1;fill-rule:evenodd;stroke:none;stroke-width:1px;stroke-linecap:butt;stroke-linejoin:miter;stroke-opacity:1"
       d="m 443.58726,1266.498 c -8.1241,-7.0896 -56.8424,39.6305 -59.0939,89.9036 -2.2516,50.2731 27.7792,107.0762 67.6802,127.2792 11.5587,5.8526 23.7197,10.7735 36.1241,12.7254 7.259,1.1422 -0.33732,5.5294 -1.56834,10.1019 -1.31214,4.8738 -1.66807,7.9654 6.86474,9.1294 5.06088,0.6904 46.4476,0.5189 58.469,0.5943 12.29646,0.077 12.62395,-5.1634 8.79167,-11.1421 -3.49118,-5.4466 -15.51549,-7.6871 -13.51357,-7.8278 8.03649,-0.5648 14.64309,-1.4729 20.91327,-2.3722 56.4241,-8.093 51.02282,-56.5527 41.15628,-85.3684 -11.70719,-34.1913 -33.88465,-37.9038 -37.95255,-46.2537 -8.7963,-18.0559 -24.6378,-14.3675 -24.3303,-17.9777 0.4942,-5.8004 1.0412,5.386 36.36546,-7.5761 35.3243,-12.9622 10.6287,-62.841 3.75,-57.7573 -6.8787,5.0838 -8.1088,-2.3819 -26.86086,1.9844 -18.7521,4.3664 -3.3681,-3.2642 -22.6567,-14.662 -19.2886,-11.3979 -14.5232,-19.8123 -26.584,-18.3231 -8.9606,1.1065 -13.414,14.8046 -18.6624,18.8107 -3.2745,2.4994 -19.5304,-3.2169 -24.7321,6.4648 -4.6638,8.6806 1.1662,22.3989 0.7738,26.9661 -0.6879,8.0057 -9.8024,9.8659 -7.7612,18.8387 2.3351,10.2649 27.2269,10.2266 18.1827,41.9214 -9.0441,31.6947 -31.3804,39.1206 -52.5279,3.5355 -21.1475,-35.5851 25.2967,-91.9054 17.1726,-98.995 z"
       id="path4149-7"
       inkscape:connector-curvature="0"
       sodipodi:nodetypes="zzssssssssssszzzzssssszzz"
       inkscape:export-xdpi="5.3296485"
       inkscape:export-ydpi="5.3296485" />
    <path
       style="fill:#ffffff;fill-opacity:1;fill-rule:evenodd;stroke:none;stroke-width:1px;stroke-linecap:butt;stroke-linejoin:miter;stroke-opacity:1"
       d="m 1302.7064,342.92292 c -8.1241,-7.0896 -56.8424,39.6305 -59.0939,89.9036 -2.2516,50.2731 27.7792,107.0762 67.6802,127.2792 11.5587,5.8526 23.7197,10.7735 36.1241,12.7254 7.259,1.1422 -0.3373,5.5294 -1.5683,10.1019 -1.3121,4.8738 -1.6681,7.9654 6.8647,9.1294 5.0609,0.6904 46.4476,0.5189 58.469,0.5943 12.2965,0.077 12.624,-5.1634 8.7917,-11.1421 -3.4912,-5.4466 -15.5155,-7.6871 -13.5136,-7.8278 8.0365,-0.5648 14.6431,-1.4729 20.9133,-2.3722 56.4241,-8.093 51.0228,-56.5527 41.1563,-85.3684 -11.7072,-34.1913 -33.8847,-37.9038 -37.9526,-46.2537 -8.7963,-18.0559 -24.6378,-14.3675 -24.3303,-17.9777 0.4942,-5.8004 1.0412,5.386 36.3655,-7.5761 35.3243,-12.9622 10.6287,-62.841 3.75,-57.7573 -6.8787,5.0838 -8.1088,-2.3819 -26.8609,1.9844 -18.7521,4.3664 -3.3681,-3.2642 -22.6567,-14.662 -19.2886,-11.3979 -14.5232,-19.8123 -26.584,-18.3231 -8.9606,1.1065 -13.414,14.8046 -18.6624,18.8107 -3.2745,2.4994 -19.5304,-3.2169 -24.7321,6.4648 -4.6638,8.6806 1.1662,22.3989 0.7738,26.9661 -0.6879,8.0057 -9.8024,9.8659 -7.7612,18.8387 2.3351,10.2649 27.2269,10.2266 18.1827,41.9214 -9.0441,31.6947 -31.3804,39.1206 -52.5279,3.5355 -21.1475,-35.5851 25.2967,-91.9054 17.1726,-98.995 z"
       id="path4149-7-5"
       inkscape:connector-curvature="0"
       sodipodi:nodetypes="zzssssssssssszzzzssssszzz"
       inkscape:export-xdpi="5.3296485"
       inkscape:export-ydpi="5.3296485" />
    <rect
       style="fill:#000000;fill-opacity:1;stroke:none"
       id="rect4153-3"
       width="282.84271"
       height="282.84271"
       x="1530.0072"
       y="813.79797"
       ry="0"
       inkscape:export-xdpi="5.3296485"
       inkscape:export-ydpi="5.3296485" />
    <path
       style="fill:#007e00;fill-opacity:1;fill-rule:evenodd;stroke:none;stroke-width:1px;stroke-linecap:butt;stroke-linejoin:miter;stroke-opacity:1"
       d="m 1614.4696,839.74975 c -8.1241,-7.0896 -56.8424,39.6305 -59.0939,89.9036 -2.2516,50.2731 27.7792,107.07625 67.6802,127.27925 11.5587,5.8526 23.7197,10.7735 36.1241,12.7254 7.259,1.1422 -0.3373,5.5294 -1.5683,10.1019 -1.3121,4.8738 -1.6681,7.9654 6.8647,9.1294 5.0609,0.6904 46.4476,0.5189 58.469,0.5943 12.2965,0.077 12.624,-5.1634 8.7917,-11.1421 -3.4912,-5.4466 -15.5155,-7.6871 -13.5136,-7.8278 8.0365,-0.5648 14.6431,-1.4729 20.9133,-2.3722 56.4241,-8.093 51.0228,-56.5527 41.1563,-85.36845 -11.7072,-34.1913 -33.8847,-37.9038 -37.9526,-46.2537 -8.7963,-18.0559 -24.6378,-14.3675 -24.3303,-17.9777 0.4942,-5.8004 1.0412,5.386 36.3655,-7.5761 35.3243,-12.9622 10.6287,-62.841 3.75,-57.7573 -6.8787,5.0838 -8.1088,-2.3819 -26.8609,1.9844 -18.7521,4.3664 -3.3681,-3.2642 -22.6567,-14.662 -19.2886,-11.3979 -14.5232,-19.8123 -26.584,-18.3231 -8.9606,1.1065 -13.414,14.8046 -18.6624,18.8107 -3.2745,2.4994 -19.5304,-3.2169 -24.7321,6.4648 -4.6638,8.6806 1.1662,22.3989 0.7738,26.9661 -0.6879,8.0057 -9.8024,9.8659 -7.7612,18.8387 2.3351,10.2649 27.2269,10.2266 18.1827,41.9214 -9.0441,31.6947 -31.3804,39.1206 -52.5279,3.5355 -21.1475,-35.5851 25.2967,-91.9054 17.1726,-98.995 z"
       id="path4149-7-5-5"
       inkscape:connector-curvature="0"
       sodipodi:nodetypes="zzssssssssssszzzzssssszzz"
       inkscape:export-xdpi="5.3296485"
       inkscape:export-ydpi="5.3296485" />
    <path
       style="fill:#007f00;fill-opacity:1;fill-rule:evenodd;stroke:none;stroke-width:1px;stroke-linecap:butt;stroke-linejoin:miter;stroke-opacity:1"
       d="m 1029.2778,1302.0658 c -8.1241,-7.0896 -56.84235,39.6305 -59.09385,89.9036 -2.2516,50.2731 27.7792,107.0762 67.68015,127.2792 11.5587,5.8526 23.7197,10.7735 36.1241,12.7254 7.259,1.1422 -0.3373,5.5294 -1.5683,10.1019 -1.3121,4.8738 -1.6681,7.9654 6.8647,9.1294 5.0609,0.6904 46.4476,0.5189 58.469,0.5943 12.2965,0.077 12.624,-5.1634 8.7917,-11.1421 -3.4912,-5.4466 -15.5155,-7.6871 -13.5136,-7.8278 8.0365,-0.5648 14.6431,-1.4729 20.9133,-2.3722 56.4241,-8.093 51.0228,-56.5527 41.1563,-85.3684 -11.7072,-34.1913 -33.8847,-37.9038 -37.9526,-46.2537 -8.7963,-18.0559 -24.6378,-14.3675 -24.3303,-17.9777 0.4942,-5.8004 1.0412,5.386 36.3655,-7.5761 35.3243,-12.9622 10.6287,-62.841 3.75,-57.7573 -6.8787,5.0838 -8.1088,-2.3819 -26.8609,1.9844 -18.7521,4.3664 -3.3681,-3.2642 -22.6567,-14.662 -19.2886,-11.3979 -14.5232,-19.8123 -26.584,-18.3231 -8.9606,1.1065 -13.414,14.8046 -18.6624,18.8107 -3.2745,2.4994 -19.5304,-3.2169 -24.7321,6.4648 -4.6638,8.6806 1.1662,22.3989 0.7738,26.9661 -0.6879,8.0057 -9.8024,9.8659 -7.7612,18.8387 2.3351,10.2649 27.2269,10.2266 18.1827,41.9214 -9.0441,31.6947 -31.3804,39.1206 -52.5279,3.5355 -21.14745,-35.5851 25.2967,-91.9054 17.1726,-98.995 z"
       id="path4149-7-6"
       inkscape:connector-curvature="0"
       sodipodi:nodetypes="zzssssssssssszzzzssssszzz"
       inkscape:export-xdpi="5.3296485"
       inkscape:export-ydpi="5.3296485" />
  </g>
</svg>
